<svg xmlns="http://www.w3.org/2000/svg" width="609" height="631" fill="none" viewBox="0 0 609 631">
    <g filter="url(#filter0_d)">
        <path fill="#000" fill-opacity=".01" d="M298.3 312.22c3.099-1.614 6.788-1.627 9.898-.035l144.928 74.206c7.832 4.01 7.832 15.208 0 19.218l-144.928 74.206c-3.11 1.592-6.799 1.579-9.898-.035l-142.492-74.205c-7.744-4.033-7.744-15.117 0-19.15L298.3 312.22z"/>
    </g>
    <path fill="#E5F0FF" d="M116 130.95c0-19.35 10.356-37.216 27.137-46.816l134.642-77.03c16.558-9.472 36.884-9.472 53.442 0l134.642 77.03C482.644 93.734 493 111.6 493 130.95v153.1c0 19.35-10.356 37.216-27.137 46.816l-134.642 77.03c-16.558 9.472-36.884 9.472-53.442 0l-134.642-77.03C126.356 321.266 116 303.4 116 284.05v-153.1z"/>
    <path fill="#9DBFF9" d="M134 139.671c0-19.259 10.238-37.059 26.865-46.708l116.658-67.7c16.687-9.684 37.267-9.684 53.954 0l116.658 67.7C464.762 102.612 475 120.412 475 139.671v135.658c0 19.259-10.238 37.059-26.865 46.708l-116.658 67.7c-16.687 9.684-37.267 9.684-53.954 0l-116.658-67.7C144.238 312.388 134 294.588 134 275.329V139.671z"/>
    <path fill="#5B8DEF" d="M304 224.292c0-20.761 11.854-39.681 30.484-48.653l113.888-54.851C460.25 115.067 474 123.769 474 137.006v138.157c0 19.252-10.208 37.046-26.786 46.692l-116.353 67.698c-11.93 6.941-26.861-1.71-26.861-15.564V224.292z"/>
    <path fill="#0063F7" d="M134 136.979c0-13.228 13.796-21.915 25.698-16.183l114.148 54.973c18.63 8.973 30.478 27.845 30.478 48.55v142.118s.146 12.974 3.164 17.341c2.586 3.742 6.743 6.33 10.504 7.138 5.432 1.167 11.008-.62 11.008-.62-15.257 8.911-34.113 8.94-49.398.078l-118.765-68.867C144.227 311.876 134 294.109 134 274.886V136.979z"/>
    <defs>
        <filter id="filter0_d" width="609" height="470" x="0" y="161" color-interpolation-filters="sRGB" filterUnits="userSpaceOnUse">
            <feFlood flood-opacity="0" result="BackgroundImageFix"/>
            <feColorMatrix in="SourceAlpha" values="0 0 0 0 0 0 0 0 0 0 0 0 0 0 0 0 0 0 127 0"/>
            <feOffset/>
            <feGaussianBlur stdDeviation="75"/>
            <feColorMatrix values="0 0 0 0 0 0 0 0 0 0.34902 0 0 0 0 0.870588 0 0 0 0.3 0"/>
            <feBlend in2="BackgroundImageFix" result="effect1_dropShadow"/>
            <feBlend in="SourceGraphic" in2="effect1_dropShadow" result="shape"/>
        </filter>
    </defs>
</svg>
