<svg xmlns="http://www.w3.org/2000/svg" width="90" height="107" fill="none" viewBox="0 0 90 107">
    <g filter="url(#filter0_d)">
        <path fill="#000" fill-opacity=".01" d="M43.822 59.477c.574-.3 1.258-.302 1.834-.007l26.865 13.75c1.452.743 1.452 2.817 0 3.56L45.656 90.53c-.576.295-1.26.292-1.834-.007L17.408 76.774c-1.435-.747-1.435-2.8 0-3.548l26.414-13.75z"/>
    </g>
    <path fill="#FFE6FF" d="M10 25.803c0-3.588 1.923-6.902 5.039-8.682l25-14.286c3.074-1.757 6.848-1.757 9.922 0l25 14.286C78.077 18.9 80 22.215 80 25.803v28.394c0 3.588-1.923 6.902-5.039 8.682l-25 14.286c-3.074 1.757-6.848 1.757-9.922 0l-25-14.286C11.923 61.1 10 57.785 10 54.197V25.803z"/>
    <path fill="#DDA5E9" d="M13.334 27.432c0-3.568 1.901-6.866 4.99-8.654L39.99 6.234c3.1-1.794 6.921-1.794 10.02 0l21.667 12.544c3.088 1.788 4.99 5.086 4.99 8.654v25.136c0 3.568-1.902 6.866-4.99 8.654L50.01 73.766c-3.099 1.794-6.92 1.794-10.02 0L18.323 61.222c-3.088-1.788-4.99-5.086-4.99-8.654V27.432z"/>
    <path fill="#AC5DD9" d="M45 43.139c0-3.848 2.208-7.355 5.678-9.018l21.215-10.167c2.212-1.06 4.774.553 4.774 3.006v25.608c0 3.568-1.902 6.866-4.99 8.654L50.003 73.77C47.782 75.057 45 73.453 45 70.885V43.14z"/>
    <path fill="#60C" d="M13.334 26.968c0-2.455 2.564-4.068 4.777-3.004l21.223 10.205C42.797 35.834 45 39.338 45 43.18v26.381s.027 2.409.589 3.22c.48.694 1.253 1.174 1.952 1.324 1.01.217 2.047-.115 2.047-.115-2.837 1.654-6.342 1.66-9.184.015l-22.08-12.784c-3.089-1.788-4.99-5.086-4.99-8.654v-25.6z"/>
    <defs>
        <filter id="filter0_d" width="89.279" height="63.499" x=".332" y="43.251" color-interpolation-filters="sRGB" filterUnits="userSpaceOnUse">
            <feFlood flood-opacity="0" result="BackgroundImageFix"/>
            <feColorMatrix in="SourceAlpha" values="0 0 0 0 0 0 0 0 0 0 0 0 0 0 0 0 0 0 127 0"/>
            <feOffset/>
            <feGaussianBlur stdDeviation="8"/>
            <feColorMatrix values="0 0 0 0 0.4 0 0 0 0 0 0 0 0 0 0.8 0 0 0 0.4 0"/>
            <feBlend in2="BackgroundImageFix" result="effect1_dropShadow"/>
            <feBlend in="SourceGraphic" in2="effect1_dropShadow" result="shape"/>
        </filter>
    </defs>
</svg>
