<svg width="159" height="61" viewBox="0 0 159 61" fill="none" xmlns="http://www.w3.org/2000/svg">
<g filter="url(#filter0_d)">
<path d="M29.7001 28.6179C29.9838 28.4703 30.3213 28.4691 30.606 28.6148L43.871 35.4037C44.5879 35.7706 44.5879 36.795 43.871 37.1619L30.606 43.9508C30.3213 44.0965 29.9838 44.0954 29.7001 43.9477L16.658 37.1588C15.9493 36.7898 15.9493 35.7758 16.658 35.4069L29.7001 28.6179Z" fill="black" fill-opacity="0.01"/>
</g>
<path d="M13 11.9915C13 10.2195 13.9494 8.58348 15.4879 7.70437L27.832 0.650571C29.35 -0.216857 31.2136 -0.216857 32.7316 0.65057L45.0757 7.70437C46.6142 8.58348 47.5636 10.2195 47.5636 11.9915V26.0112C47.5636 27.7831 46.6142 29.4192 45.0757 30.2983L32.7316 37.3521C31.2136 38.2195 29.35 38.2195 27.832 37.3521L15.4879 30.2983C13.9494 29.4192 13 27.7831 13 26.0112V11.9915Z" fill="#E5F0FF"/>
<path d="M14.646 12.7959C14.646 11.034 15.5849 9.40556 17.1097 8.52276L27.808 2.32903C29.3383 1.44306 31.2255 1.44306 32.7559 2.32903L43.4541 8.52276C44.979 9.40556 45.9178 11.034 45.9178 12.7959V25.207C45.9178 26.969 44.979 28.5974 43.4541 29.4802L32.7559 35.674C31.2255 36.5599 29.3383 36.5599 27.808 35.674L17.1097 29.4802C15.5849 28.5974 14.646 26.969 14.646 25.207V12.7959Z" fill="#9DBFF9"/>
<path d="M30.2817 20.5513C30.2817 18.6513 31.372 16.9197 33.0855 16.0986L43.5605 11.0787C44.653 10.5551 45.9177 11.3515 45.9177 12.5629V25.207C45.9177 26.9689 44.9788 28.5974 43.4539 29.4802L32.7523 35.6759C31.655 36.3111 30.2817 35.5194 30.2817 34.2515L30.2817 28.0538L30.2817 20.5513Z" fill="#5B8DEF"/>
<path d="M14.646 12.5669C14.646 11.3544 15.9124 10.5581 17.0051 11.0836L27.484 16.1223C29.1943 16.9447 30.2819 18.6745 30.2819 20.5722V33.5984C30.2819 33.5984 30.2954 34.7876 30.5724 35.1878C30.8098 35.5309 31.1915 35.768 31.5367 35.8421C32.0353 35.9491 32.5472 35.7853 32.5472 35.7853C31.1467 36.602 29.4156 36.6047 28.0125 35.7924L17.1097 29.4803C15.5849 28.5975 14.646 26.969 14.646 25.2071V12.5669Z" fill="#0063F7"/>
<path d="M65.9316 31.8519C65.6024 31.9506 65.0758 32.0494 64.3516 32.1481C63.6603 32.2469 62.9361 32.2963 62.179 32.2963C61.4548 32.2963 60.7965 32.2469 60.2039 32.1481C59.6443 32.0494 59.167 31.8519 58.772 31.5556C58.377 31.2593 58.0643 30.8643 57.8339 30.3706C57.6364 29.8439 57.5376 29.1691 57.5376 28.3461V13.5332C57.5376 12.776 57.6693 12.1342 57.9326 11.6075C58.2289 11.0479 58.6403 10.5541 59.167 10.1262C59.6937 9.69824 60.3356 9.31969 61.0927 8.99051C61.8827 8.62841 62.7221 8.3157 63.6109 8.05235C64.4997 7.78901 65.4214 7.59151 66.376 7.45983C67.3306 7.29525 68.2852 7.21295 69.2398 7.21295C70.8199 7.21295 72.0708 7.52567 72.9925 8.15111C73.9142 8.74362 74.375 9.73116 74.375 11.1137C74.375 11.5745 74.3092 12.0354 74.1775 12.4962C74.0458 12.9242 73.8812 13.3192 73.6837 13.6813C72.9925 13.6813 72.2847 13.7142 71.5605 13.78C70.8364 13.8459 70.1286 13.9446 69.4374 14.0763C68.7461 14.208 68.0877 14.3561 67.4623 14.5207C66.8698 14.6524 66.3595 14.8169 65.9316 15.0145V31.8519Z" fill="#494949"/>
<path d="M86.4295 31.8519C86.0674 31.9177 85.5242 32 84.8 32.0988C84.1088 32.2304 83.401 32.2963 82.6768 32.2963C81.9526 32.2963 81.2943 32.2469 80.7018 32.1481C80.1422 32.0494 79.6649 31.8519 79.2698 31.5556C78.8748 31.2593 78.5621 30.8643 78.3317 30.3706C78.1342 29.8439 78.0354 29.1691 78.0354 28.3461V8.24986C78.3975 8.18402 78.9242 8.10173 79.6155 8.00298C80.3397 7.87131 81.0639 7.80547 81.7881 7.80547C82.5122 7.80547 83.1541 7.85485 83.7137 7.9536C84.3063 8.05235 84.8 8.24986 85.195 8.54612C85.5901 8.84238 85.8863 9.25385 86.0838 9.78053C86.3142 10.2743 86.4295 10.9327 86.4295 11.7556V31.8519Z" fill="#494949"/>
<path d="M92.6127 31.9012C92.086 31.4404 91.6581 30.8973 91.3289 30.2718C91.0327 29.6464 90.8845 28.9387 90.8845 28.1486C90.8845 27.4903 91.0327 26.8484 91.3289 26.2229C91.6581 25.5646 92.0531 24.9556 92.514 24.396L101.007 14.4219H91.9214C91.7239 14.0598 91.5264 13.599 91.3289 13.0394C91.1643 12.4798 91.082 11.8708 91.082 11.2125C91.082 10.0603 91.3289 9.23739 91.8227 8.74363C92.3494 8.21694 93.0406 7.9536 93.8965 7.9536H109.45C109.977 8.41445 110.388 8.95759 110.685 9.58303C111.014 10.2085 111.178 10.9162 111.178 11.7062C111.178 12.3646 111.014 13.0229 110.685 13.6813C110.388 14.3067 110.01 14.8992 109.549 15.4588L101.254 25.4329H110.931C111.129 25.795 111.31 26.2559 111.475 26.8155C111.672 27.3751 111.771 27.984 111.771 28.6424C111.771 29.7945 111.507 30.6339 110.981 31.1606C110.487 31.6544 109.812 31.9012 108.956 31.9012H92.6127Z" fill="#494949"/>
<path d="M127.753 32.6913C125.811 32.6913 124 32.4279 122.322 31.9012C120.676 31.3416 119.227 30.5187 117.976 29.4324C116.759 28.3461 115.787 26.98 115.063 25.3342C114.372 23.6883 114.026 21.7626 114.026 19.5571C114.026 17.3845 114.372 15.5247 115.063 13.9775C115.787 12.3975 116.726 11.1137 117.878 10.1262C119.03 9.10572 120.347 8.36507 121.828 7.90422C123.309 7.41046 124.823 7.16357 126.37 7.16357C128.115 7.16357 129.695 7.42692 131.111 7.9536C132.559 8.48028 133.793 9.20447 134.814 10.1262C135.867 11.0479 136.674 12.1506 137.233 13.4344C137.826 14.7182 138.122 16.1172 138.122 17.6314C138.122 18.7506 137.809 19.6065 137.184 20.199C136.559 20.7915 135.686 21.1701 134.567 21.3347L122.371 23.1616C122.733 24.2479 123.474 25.0708 124.593 25.6304C125.712 26.1571 126.996 26.4204 128.444 26.4204C129.794 26.4204 131.061 26.2559 132.246 25.9267C133.464 25.5646 134.452 25.1531 135.209 24.6923C135.736 25.0214 136.18 25.4823 136.542 26.0748C136.904 26.6673 137.085 27.2928 137.085 27.9511C137.085 29.4324 136.394 30.5352 135.011 31.2593C133.958 31.8189 132.773 32.1975 131.456 32.395C130.14 32.5925 128.905 32.6913 127.753 32.6913ZM126.37 13.2863C125.58 13.2863 124.889 13.4179 124.297 13.6813C123.737 13.9446 123.276 14.2903 122.914 14.7182C122.552 15.1132 122.272 15.5741 122.075 16.1007C121.91 16.5945 121.811 17.1047 121.778 17.6314L130.222 16.2489C130.123 15.5905 129.761 14.9322 129.136 14.2738C128.51 13.6154 127.588 13.2863 126.37 13.2863Z" fill="#494949"/>
<path d="M150.557 31.8519C150.227 31.9506 149.701 32.0494 148.976 32.1481C148.285 32.2469 147.561 32.2963 146.804 32.2963C146.08 32.2963 145.421 32.2469 144.829 32.1481C144.269 32.0494 143.792 31.8519 143.397 31.5556C143.002 31.2593 142.689 30.8643 142.459 30.3706C142.261 29.8439 142.162 29.1691 142.162 28.3461V13.5332C142.162 12.776 142.294 12.1342 142.558 11.6075C142.854 11.0479 143.265 10.5541 143.792 10.1262C144.319 9.69824 144.961 9.31969 145.718 8.99051C146.508 8.62841 147.347 8.3157 148.236 8.05235C149.125 7.78901 150.046 7.59151 151.001 7.45983C151.956 7.29525 152.91 7.21295 153.865 7.21295C155.445 7.21295 156.696 7.52567 157.617 8.15111C158.539 8.74362 159 9.73116 159 11.1137C159 11.5745 158.934 12.0354 158.802 12.4962C158.671 12.9242 158.506 13.3192 158.309 13.6813C157.617 13.6813 156.91 13.7142 156.185 13.78C155.461 13.8459 154.754 13.9446 154.062 14.0763C153.371 14.208 152.713 14.3561 152.087 14.5207C151.495 14.6524 150.984 14.8169 150.557 15.0145V31.8519Z" fill="#494949"/>
<defs>
<filter id="filter0_d" x="0.126465" y="12.5063" width="60.2822" height="47.5529" filterUnits="userSpaceOnUse" color-interpolation-filters="sRGB">
<feFlood flood-opacity="0" result="BackgroundImageFix"/>
<feColorMatrix in="SourceAlpha" type="matrix" values="0 0 0 0 0 0 0 0 0 0 0 0 0 0 0 0 0 0 127 0"/>
<feOffset/>
<feGaussianBlur stdDeviation="8"/>
<feColorMatrix type="matrix" values="0 0 0 0 0 0 0 0 0 0.34902 0 0 0 0 0.870588 0 0 0 0.4 0"/>
<feBlend mode="normal" in2="BackgroundImageFix" result="effect1_dropShadow"/>
<feBlend mode="normal" in="SourceGraphic" in2="effect1_dropShadow" result="shape"/>
</filter>
</defs>
</svg>
