<svg xmlns="http://www.w3.org/2000/svg" width="280" height="280" fill="none" viewBox="0 0 280 280">
    <g filter="url(#filter0_d)">
        <rect width="200" height="200" x="40" y="30" fill="#5B8DEF" rx="20"/>
    </g>
    <circle cx="140" cy="80" r="18" fill="url(#paint0_linear)"/>
    <circle cx="118" cy="116" r="18" fill="url(#paint1_linear)"/>
    <circle cx="162" cy="116" r="18" fill="url(#paint2_linear)"/>
    <path fill="#fff" d="M95.632 172.18c-.96 0-1.813-.187-2.56-.56-.733-.387-1.306-.927-1.72-1.62-.4-.707-.6-1.513-.6-2.42v-5.18c0-.907.2-1.7.6-2.38.413-.693.987-1.227 1.72-1.6.747-.387 1.6-.58 2.56-.58s1.807.187 2.54.56c.734.36 1.3.873 1.7 1.54.414.667.62 1.44.62 2.32v.02c0 .067-.02.12-.06.16-.04.04-.086.06-.14.06l-1.52.08c-.133 0-.2-.06-.2-.18v-.06c0-.853-.267-1.54-.8-2.06s-1.247-.78-2.14-.78-1.613.26-2.16.78c-.533.52-.8 1.207-.8 2.06v5.32c0 .853.267 1.54.8 2.06.547.52 1.267.78 2.16.78.893 0 1.607-.26 2.14-.78.533-.52.8-1.207.8-2.06v-.04c0-.12.067-.18.2-.18l1.52.08c.134 0 .2.067.2.2 0 .88-.206 1.66-.62 2.34-.4.667-.966 1.187-1.7 1.56-.733.373-1.58.56-2.54.56zm11.549-.02c-.987 0-1.847-.247-2.58-.74-.733-.507-1.247-1.207-1.54-2.1-.24-.72-.36-1.533-.36-2.44 0-.947.113-1.747.34-2.4.293-.88.807-1.567 1.54-2.06.733-.507 1.607-.76 2.62-.76.96 0 1.793.253 2.5.76.72.493 1.233 1.173 1.54 2.04.24.68.36 1.48.36 2.4 0 .933-.12 1.753-.36 2.46-.293.893-.8 1.593-1.52 2.1-.72.493-1.567.74-2.54.74zm0-1.66c.533 0 1-.147 1.4-.44.4-.307.687-.733.86-1.28.147-.507.22-1.133.22-1.88 0-.747-.067-1.367-.2-1.86-.173-.547-.46-.967-.86-1.26-.4-.307-.887-.46-1.46-.46-.547 0-1.02.153-1.42.46-.4.293-.687.713-.86 1.26-.147.467-.22 1.087-.22 1.86 0 .773.073 1.4.22 1.88.16.547.44.973.84 1.28.413.293.907.44 1.48.44zm11.474-8.82c1.093 0 1.96.32 2.6.96.64.627.96 1.48.96 2.56v6.6c0 .133-.067.2-.2.2h-1.52c-.133 0-.2-.067-.2-.2v-6.22c0-.667-.193-1.207-.58-1.62-.387-.413-.9-.62-1.54-.62-.627 0-1.14.207-1.54.62-.4.413-.6.947-.6 1.6v6.24c0 .133-.067.2-.2.2h-1.52c-.133 0-.2-.067-.2-.2v-9.78c0-.133.067-.2.2-.2h1.52c.133 0 .2.067.2.2v.72c0 .027.007.047.02.06.027.013.047.007.06-.02.573-.733 1.42-1.1 2.54-1.1zm11.32 1.52c0 .133-.067.2-.2.2h-2.16c-.054 0-.08.027-.08.08v5.3c0 .56.126.967.38 1.22.253.24.646.36 1.18.36h.58c.133 0 .2.067.2.2v1.24c0 .133-.067.2-.2.2-.427.027-.734.04-.92.04-1.014 0-1.78-.18-2.3-.54-.507-.373-.76-1.053-.76-2.04v-5.98c0-.053-.027-.08-.08-.08h-1.22c-.134 0-.2-.067-.2-.2v-1.18c0-.133.066-.2.2-.2h1.22c.053 0 .08-.027.08-.08v-2.36c0-.133.066-.2.2-.2h1.44c.133 0 .2.067.2.2v2.36c0 .053.026.08.08.08h2.16c.133 0 .2.067.2.2v1.18zm6.823-1.48c.426 0 .813.087 1.16.26.093.04.126.12.1.24l-.32 1.5c-.014.12-.094.16-.24.12-.227-.093-.494-.14-.8-.14l-.28.02c-.627.027-1.147.247-1.56.66-.4.4-.6.927-.6 1.58v5.84c0 .133-.067.2-.2.2h-1.52c-.134 0-.2-.067-.2-.2v-9.78c0-.133.066-.2.2-.2h1.52c.133 0 .2.067.2.2v1.06c0 .04.006.067.02.08.026 0 .046-.013.06-.04.6-.933 1.42-1.4 2.46-1.4zm6.965 10.44c-.987 0-1.847-.247-2.58-.74-.733-.507-1.247-1.207-1.54-2.1-.24-.72-.36-1.533-.36-2.44 0-.947.113-1.747.34-2.4.293-.88.807-1.567 1.54-2.06.733-.507 1.607-.76 2.62-.76.96 0 1.793.253 2.5.76.72.493 1.233 1.173 1.54 2.04.24.68.36 1.48.36 2.4 0 .933-.12 1.753-.36 2.46-.293.893-.8 1.593-1.52 2.1-.72.493-1.567.74-2.54.74zm0-1.66c.533 0 1-.147 1.4-.44.4-.307.687-.733.86-1.28.147-.507.22-1.133.22-1.88 0-.747-.067-1.367-.2-1.86-.173-.547-.46-.967-.86-1.26-.4-.307-.887-.46-1.46-.46-.547 0-1.02.153-1.42.46-.4.293-.687.713-.86 1.26-.147.467-.22 1.087-.22 1.86 0 .773.073 1.4.22 1.88.16.547.44.973.84 1.28.413.293.907.44 1.48.44zm7.134 1.5c-.133 0-.2-.067-.2-.2v-13.6c0-.133.067-.2.2-.2h1.52c.133 0 .2.067.2.2v13.6c0 .133-.067.2-.2.2h-1.52zm12.747-6.36c.053.547.073 1.16.06 1.84 0 .133-.067.2-.2.2h-6.38c-.053 0-.08.027-.08.08 0 .453.04.8.12 1.04.147.533.44.953.88 1.26.453.293 1.02.44 1.7.44.987 0 1.747-.407 2.28-1.22.067-.133.153-.153.26-.06l1.14.76c.093.08.113.167.06.26-.373.6-.907 1.073-1.6 1.42-.68.347-1.453.52-2.32.52-.973 0-1.793-.213-2.46-.64-.667-.427-1.167-1.033-1.5-1.82-.32-.787-.48-1.74-.48-2.86 0-.973.073-1.713.22-2.22.24-.92.72-1.647 1.44-2.18.72-.533 1.593-.8 2.62-.8 1.347 0 2.353.34 3.02 1.02.667.667 1.073 1.653 1.22 2.96zm-4.24-2.32c-.573 0-1.047.147-1.42.44-.373.28-.627.66-.76 1.14-.093.293-.153.667-.18 1.12 0 .053.027.08.08.08h4.58c.053 0 .08-.027.08-.08-.027-.44-.067-.767-.12-.98-.133-.52-.4-.933-.8-1.24-.387-.32-.873-.48-1.46-.48zm17.046-5.12c0-.133.067-.2.2-.2h1.52c.134 0 .2.067.2.2v13.6c0 .133-.066.2-.2.2h-1.52c-.133 0-.2-.067-.2-.2v-.66c0-.027-.013-.047-.04-.06-.013-.013-.033-.007-.06.02-.293.333-.64.593-1.04.78-.4.187-.833.28-1.3.28-.96 0-1.76-.233-2.4-.7-.626-.48-1.086-1.153-1.38-2.02-.253-.707-.38-1.56-.38-2.56 0-.933.107-1.74.32-2.42.28-.88.74-1.567 1.38-2.06.64-.493 1.46-.74 2.46-.74.454 0 .88.093 1.28.28.414.173.767.427 1.06.76.027.027.047.033.06.02.027-.013.04-.033.04-.06v-4.46zm-.5 11.22c.307-.56.46-1.4.46-2.52s-.166-1.973-.5-2.56c-.386-.68-.953-1.02-1.7-1.02-.8 0-1.393.32-1.78.96-.426.667-.64 1.547-.64 2.64 0 1.027.167 1.853.5 2.48.387.733 1.02 1.1 1.9 1.1.774 0 1.36-.36 1.76-1.08zm13.475-3.78c.053.547.073 1.16.06 1.84 0 .133-.067.2-.2.2h-6.38c-.053 0-.08.027-.08.08 0 .453.04.8.12 1.04.147.533.44.953.88 1.26.453.293 1.02.44 1.7.44.987 0 1.747-.407 2.28-1.22.067-.133.153-.153.26-.06l1.14.76c.093.08.113.167.06.26-.373.6-.907 1.073-1.6 1.42-.68.347-1.453.52-2.32.52-.973 0-1.793-.213-2.46-.64-.667-.427-1.167-1.033-1.5-1.82-.32-.787-.48-1.74-.48-2.86 0-.973.073-1.713.22-2.22.24-.92.72-1.647 1.44-2.18.72-.533 1.593-.8 2.62-.8 1.347 0 2.353.34 3.02 1.02.667.667 1.073 1.653 1.22 2.96zm-4.24-2.32c-.573 0-1.047.147-1.42.44-.373.28-.627.66-.76 1.14-.093.293-.153.667-.18 1.12 0 .053.027.08.08.08h4.58c.053 0 .08-.027.08-.08-.027-.44-.067-.767-.12-.98-.133-.52-.4-.933-.8-1.24-.387-.32-.873-.48-1.46-.48zm-70.524 20.14c0 .133-.067.2-.2.2h-7.1c-.054 0-.08.027-.08.08v4.3c0 .053.026.08.08.08h4.88c.133 0 .2.067.2.2v1.26c0 .133-.067.2-.2.2h-4.88c-.054 0-.08.027-.08.08v4.4c0 .053.026.08.08.08h7.1c.133 0 .2.067.2.2v1.26c0 .133-.067.2-.2.2h-8.9c-.134 0-.2-.067-.2-.2v-13.6c0-.133.066-.2.2-.2h8.9c.133 0 .2.067.2.2v1.26zm5.993 12.66c-.8 0-1.507-.12-2.12-.36-.6-.24-1.067-.567-1.4-.98-.334-.427-.5-.893-.5-1.4v-.22c0-.133.066-.2.2-.2h1.44c.133 0 .2.067.2.2v.1c0 .373.2.7.6.98.413.28.933.42 1.56.42.6 0 1.086-.127 1.46-.38.373-.267.56-.6.56-1 0-.387-.174-.673-.52-.86-.347-.2-.907-.407-1.68-.62-.76-.213-1.4-.427-1.92-.64-.507-.227-.94-.54-1.3-.94-.347-.413-.52-.94-.52-1.58 0-.893.346-1.6 1.04-2.12.706-.533 1.64-.8 2.8-.8.773 0 1.453.127 2.04.38.6.24 1.06.58 1.38 1.02.32.44.48.933.48 1.48v.06c0 .133-.067.2-.2.2h-1.4c-.134 0-.2-.067-.2-.2v-.06c0-.387-.194-.707-.58-.96-.374-.267-.887-.4-1.54-.4-.587 0-1.067.113-1.44.34-.36.227-.54.533-.54.92s.173.68.52.88c.36.2.933.413 1.72.64.773.213 1.413.427 1.92.64.52.2.96.507 1.32.92.36.4.54.927.54 1.58 0 .907-.36 1.627-1.08 2.16-.707.533-1.654.8-2.84.8zm11.166-8.92c0 .133-.066.2-.2.2h-2.16c-.053 0-.08.027-.08.08v5.3c0 .56.127.967.38 1.22.254.24.647.36 1.18.36h.58c.134 0 .2.067.2.2v1.24c0 .133-.066.2-.2.2-.426.027-.733.04-.92.04-1.013 0-1.78-.18-2.3-.54-.506-.373-.76-1.053-.76-2.04v-5.98c0-.053-.026-.08-.08-.08h-1.22c-.133 0-.2-.067-.2-.2v-1.18c0-.133.067-.2.2-.2h1.22c.054 0 .08-.027.08-.08v-2.36c0-.133.067-.2.2-.2h1.44c.134 0 .2.067.2.2v2.36c0 .053.027.08.08.08h2.16c.134 0 .2.067.2.2v1.18zm6.289 8.96c-.987 0-1.847-.247-2.58-.74-.734-.507-1.247-1.207-1.54-2.1-.24-.72-.36-1.533-.36-2.44 0-.947.113-1.747.34-2.4.293-.88.806-1.567 1.54-2.06.733-.507 1.606-.76 2.62-.76.96 0 1.793.253 2.5.76.72.493 1.233 1.173 1.54 2.04.24.68.36 1.48.36 2.4 0 .933-.12 1.753-.36 2.46-.294.893-.8 1.593-1.52 2.1-.72.493-1.567.74-2.54.74zm0-1.66c.533 0 1-.147 1.4-.44.4-.307.686-.733.86-1.28.146-.507.22-1.133.22-1.88 0-.747-.067-1.367-.2-1.86-.174-.547-.46-.967-.86-1.26-.4-.307-.887-.46-1.46-.46-.547 0-1.02.153-1.42.46-.4.293-.687.713-.86 1.26-.147.467-.22 1.087-.22 1.86 0 .773.073 1.4.22 1.88.16.547.44.973.84 1.28.413.293.906.44 1.48.44zm13.254-8.48c0-.133.066-.2.2-.2h1.52c.133 0 .2.067.2.2v13.6c0 .133-.067.2-.2.2h-1.52c-.134 0-.2-.067-.2-.2v-4.46c0-.027-.014-.047-.04-.06-.014-.013-.034-.007-.06.02-.294.333-.647.593-1.06.78-.4.173-.827.26-1.28.26-1 0-1.82-.24-2.46-.72-.64-.493-1.1-1.187-1.38-2.08-.214-.68-.32-1.487-.32-2.42 0-.987.126-1.84.38-2.56.293-.867.753-1.533 1.38-2 .64-.48 1.44-.72 2.4-.72.466 0 .9.093 1.3.28.4.187.746.447 1.04.78.026.027.046.033.06.02.026-.013.04-.033.04-.06v-.66zm-.54 7.46c.333-.573.5-1.427.5-2.56 0-1.12-.154-1.96-.46-2.52-.4-.72-.987-1.08-1.76-1.08-.88 0-1.514.367-1.9 1.1-.334.627-.5 1.453-.5 2.48 0 1.12.213 2 .64 2.64.386.64.98.96 1.78.96.746 0 1.313-.34 1.7-1.02zm11.432-7.46c0-.133.067-.2.2-.2h1.5c.133 0 .2.067.2.2v9.78c0 .133-.067.2-.2.2h-1.5c-.133 0-.2-.067-.2-.2v-.74c0-.027-.013-.04-.04-.04-.013-.013-.033-.007-.06.02-.533.733-1.353 1.1-2.46 1.1-.653 0-1.26-.127-1.82-.38-.547-.253-.987-.627-1.32-1.12-.333-.493-.5-1.093-.5-1.8v-6.82c0-.133.067-.2.2-.2h1.5c.133 0 .2.067.2.2v6.22c0 .693.18 1.24.54 1.64.373.4.893.6 1.56.6s1.2-.2 1.6-.6c.4-.413.6-.96.6-1.64v-6.22zm12.942 3.62c.053.547.073 1.16.06 1.84 0 .133-.067.2-.2.2h-6.38c-.054 0-.08.027-.08.08 0 .453.04.8.12 1.04.146.533.44.953.88 1.26.453.293 1.02.44 1.7.44.986 0 1.746-.407 2.28-1.22.066-.133.153-.153.26-.06l1.14.76c.093.08.113.167.06.26-.374.6-.907 1.073-1.6 1.42-.68.347-1.454.52-2.32.52-.974 0-1.794-.213-2.46-.64-.667-.427-1.167-1.033-1.5-1.82-.32-.787-.48-1.74-.48-2.86 0-.973.073-1.713.22-2.22.24-.92.72-1.647 1.44-2.18.72-.533 1.593-.8 2.62-.8 1.346 0 2.353.34 3.02 1.02.666.667 1.073 1.653 1.22 2.96zm-4.24-2.32c-.574 0-1.047.147-1.42.44-.374.28-.627.66-.76 1.14-.094.293-.154.667-.18 1.12 0 .053.026.08.08.08h4.58c.053 0 .08-.027.08-.08-.027-.44-.067-.767-.12-.98-.134-.52-.4-.933-.8-1.24-.387-.32-.874-.48-1.46-.48z"/>
    <defs>
        <linearGradient id="paint0_linear" x1="158" x2="122" y1="62" y2="98" gradientUnits="userSpaceOnUse">
            <stop stop-color="#fff"/>
            <stop offset="1" stop-color="#fff" stop-opacity="0"/>
        </linearGradient>
        <linearGradient id="paint1_linear" x1="136" x2="100" y1="98" y2="134" gradientUnits="userSpaceOnUse">
            <stop stop-color="#fff"/>
            <stop offset="1" stop-color="#fff" stop-opacity="0"/>
        </linearGradient>
        <linearGradient id="paint2_linear" x1="180" x2="144" y1="98" y2="134" gradientUnits="userSpaceOnUse">
            <stop stop-color="#fff"/>
            <stop offset="1" stop-color="#fff" stop-opacity="0"/>
        </linearGradient>
        <filter id="filter0_d" width="280" height="280" x="0" y="0" color-interpolation-filters="sRGB" filterUnits="userSpaceOnUse">
            <feFlood flood-opacity="0" result="BackgroundImageFix"/>
            <feColorMatrix in="SourceAlpha" values="0 0 0 0 0 0 0 0 0 0 0 0 0 0 0 0 0 0 127 0"/>
            <feOffset dy="10"/>
            <feGaussianBlur stdDeviation="20"/>
            <feColorMatrix values="0 0 0 0 0.782 0 0 0 0 0.786533 0 0 0 0 0.85 0 0 0 0.5 0"/>
            <feBlend in2="BackgroundImageFix" result="effect1_dropShadow"/>
            <feBlend in="SourceGraphic" in2="effect1_dropShadow" result="shape"/>
        </filter>
    </defs>
</svg>
