<svg xmlns="http://www.w3.org/2000/svg" width="301" height="282" fill="none" viewBox="0 0 301 282">
    <path fill="url(#paint0_linear)" d="M42.104 63.054c-1.7 0-3.055-.486-4.065-1.458-1.01-.971-1.514-2.27-1.514-3.895v-8.374c0-1.626.505-2.916 1.514-3.87C39.05 44.487 40.403 44 42.104 44c1.717 0 3.09.486 4.117 1.458 1.027.971 1.54 2.26 1.54 3.869V57.7c0 1.625-.513 2.923-1.54 3.895-1.027.972-2.4 1.458-4.117 1.458zm0-1.643c1.133 0 2.045-.327 2.736-.98.69-.654 1.036-1.529 1.036-2.624v-8.56c0-1.078-.346-1.943-1.036-2.597-.673-.654-1.585-.98-2.736-.98-1.116 0-2.01.326-2.683.98-.673.654-1.01 1.52-1.01 2.597v8.56c0 1.095.337 1.97 1.01 2.623.673.654 1.567.98 2.683.98z"/>
    <path fill="url(#paint1_linear)" d="M57.123 63.054c-1.7 0-3.054-.486-4.064-1.458-1.01-.971-1.514-2.27-1.514-3.895v-8.374c0-1.626.505-2.916 1.514-3.87C54.07 44.487 55.423 44 57.124 44c1.717 0 3.09.486 4.117 1.458 1.027.971 1.54 2.26 1.54 3.869V57.7c0 1.625-.513 2.923-1.54 3.895-1.027.972-2.4 1.458-4.117 1.458zm0-1.643c1.134 0 2.046-.327 2.737-.98.69-.654 1.036-1.529 1.036-2.624v-8.56c0-1.078-.346-1.943-1.036-2.597-.673-.654-1.585-.98-2.736-.98-1.116 0-2.01.326-2.683.98-.673.654-1.01 1.52-1.01 2.597v8.56c0 1.095.337 1.97 1.01 2.623.672.654 1.567.98 2.682.98z"/>
    <path fill="url(#paint2_linear)" d="M72.144 63.054c-1.7 0-3.055-.486-4.065-1.458-1.01-.971-1.514-2.27-1.514-3.895v-8.374c0-1.626.505-2.916 1.514-3.87C69.09 44.487 70.443 44 72.144 44c1.717 0 3.09.486 4.117 1.458 1.027.971 1.54 2.26 1.54 3.869V57.7c0 1.625-.513 2.923-1.54 3.895-1.027.972-2.4 1.458-4.117 1.458zm0-1.643c1.133 0 2.045-.327 2.735-.98.691-.654 1.036-1.529 1.036-2.624v-8.56c0-1.078-.345-1.943-1.036-2.597-.672-.654-1.584-.98-2.736-.98-1.115 0-2.01.326-2.683.98-.672.654-1.009 1.52-1.009 2.597v8.56c0 1.095.337 1.97 1.01 2.623.672.654 1.567.98 2.683.98z"/>
    <path fill="url(#paint3_linear)" d="M83.728 44.318c.106-.053.222-.08.346-.08h1.434c.177 0 .266.089.266.266v18.02c0 .176-.089.265-.266.265h-1.355c-.177 0-.265-.089-.265-.265V46.385c0-.035-.018-.062-.054-.08-.017-.017-.044-.017-.08 0l-2.815 1.14-.106.026c-.106 0-.177-.07-.213-.211l-.133-1.008V46.2c0-.088.062-.176.186-.264l3.055-1.617z"/>
    <path fill="url(#paint4_linear)" d="M95.698 63.054c-1.7 0-3.055-.486-4.064-1.458-1.01-.971-1.514-2.27-1.514-3.895v-8.374c0-1.626.504-2.916 1.514-3.87 1.01-.971 2.364-1.457 4.064-1.457 1.718 0 3.09.486 4.118 1.458 1.027.971 1.54 2.26 1.54 3.869V57.7c0 1.625-.513 2.923-1.54 3.895-1.028.972-2.4 1.458-4.118 1.458zm0-1.643c1.134 0 2.046-.327 2.736-.98.69-.654 1.036-1.529 1.036-2.624v-8.56c0-1.078-.345-1.943-1.036-2.597-.673-.654-1.585-.98-2.736-.98-1.116 0-2.01.326-2.683.98-.673.654-1.01 1.52-1.01 2.597v8.56c0 1.095.337 1.97 1.01 2.623.673.654 1.567.98 2.683.98z"/>
    <path fill="url(#paint5_linear)" d="M107.283 44.318c.106-.053.221-.08.345-.08h1.435c.177 0 .265.089.265.266v18.02c0 .176-.088.265-.265.265h-1.355c-.177 0-.266-.089-.266-.265V46.385c0-.035-.018-.062-.053-.08-.018-.017-.044-.017-.08 0l-2.815 1.14-.107.026c-.106 0-.177-.07-.212-.211l-.133-1.008V46.2c0-.088.062-.176.186-.264l3.055-1.617z"/>
    <path fill="url(#paint6_linear)" d="M119.253 63.054c-1.7 0-3.055-.486-4.065-1.458-1.009-.971-1.514-2.27-1.514-3.895v-8.374c0-1.626.505-2.916 1.514-3.87 1.01-.971 2.365-1.457 4.065-1.457 1.717 0 3.09.486 4.117 1.458 1.027.971 1.541 2.26 1.541 3.869V57.7c0 1.625-.514 2.923-1.541 3.895s-2.4 1.458-4.117 1.458zm0-1.643c1.133 0 2.045-.327 2.736-.98.69-.654 1.036-1.529 1.036-2.624v-8.56c0-1.078-.346-1.943-1.036-2.597-.673-.654-1.585-.98-2.736-.98-1.116 0-2.01.326-2.683.98-.673.654-1.01 1.52-1.01 2.597v8.56c0 1.095.337 1.97 1.01 2.623.673.654 1.567.98 2.683.98z"/>
    <path fill="url(#paint7_linear)" d="M130.837 44.318c.107-.053.222-.08.346-.08h1.434c.177 0 .266.089.266.266v18.02c0 .176-.089.265-.266.265h-1.355c-.177 0-.265-.089-.265-.265V46.385c0-.035-.018-.062-.053-.08-.018-.017-.045-.017-.08 0l-2.816 1.14-.106.026c-.106 0-.177-.07-.213-.211l-.132-1.008V46.2c0-.088.062-.176.186-.264l3.054-1.617z"/>
    <path fill="url(#paint8_linear)" d="M142.807 63.054c-1.7 0-3.055-.486-4.064-1.458-1.009-.971-1.514-2.27-1.514-3.895v-8.374c0-1.626.505-2.916 1.514-3.87 1.009-.971 2.364-1.457 4.064-1.457 1.718 0 3.091.486 4.118 1.458 1.027.971 1.54 2.26 1.54 3.869V57.7c0 1.625-.513 2.923-1.54 3.895-1.027.972-2.4 1.458-4.118 1.458zm0-1.643c1.134 0 2.046-.327 2.736-.98.691-.654 1.036-1.529 1.036-2.624v-8.56c0-1.078-.345-1.943-1.036-2.597-.673-.654-1.585-.98-2.736-.98-1.115 0-2.01.326-2.683.98-.673.654-1.009 1.52-1.009 2.597v8.56c0 1.095.336 1.97 1.009 2.623.673.654 1.568.98 2.683.98z"/>
    <path fill="url(#paint9_linear)" d="M154.392 44.318c.106-.053.221-.08.345-.08h1.435c.177 0 .265.089.265.266v18.02c0 .176-.088.265-.265.265h-1.355c-.177 0-.266-.089-.266-.265V46.385c0-.035-.017-.062-.053-.08-.017-.017-.044-.017-.079 0l-2.816 1.14-.106.026c-.107 0-.178-.07-.213-.211l-.133-1.008V46.2c0-.088.062-.176.186-.264l3.055-1.617z"/>
    <path fill="url(#paint10_linear)" d="M33.569 95.443c-1.7 0-3.055-.486-4.064-1.457-1.01-.972-1.514-2.27-1.514-3.896v-8.374c0-1.625.504-2.915 1.514-3.87 1.01-.97 2.364-1.457 4.064-1.457 1.718 0 3.09.486 4.117 1.458 1.028.972 1.541 2.261 1.541 3.869v8.374c0 1.625-.513 2.924-1.54 3.895-1.028.972-2.4 1.458-4.118 1.458zm0-1.643c1.133 0 2.045-.327 2.736-.98.69-.654 1.036-1.529 1.036-2.624v-8.56c0-1.077-.345-1.943-1.036-2.597-.673-.653-1.585-.98-2.736-.98-1.116 0-2.01.327-2.683.98-.673.654-1.01 1.52-1.01 2.597v8.56c0 1.095.337 1.97 1.01 2.623.673.654 1.567.981 2.683.981z"/>
    <path fill="url(#paint11_linear)" d="M45.154 76.707c.106-.053.221-.08.345-.08h1.434c.178 0 .266.09.266.266v18.02c0 .177-.088.265-.266.265H45.58c-.177 0-.266-.088-.266-.265V78.774c0-.035-.018-.061-.053-.08-.018-.017-.044-.017-.08 0l-2.816 1.14-.106.027c-.106 0-.177-.07-.212-.212l-.133-1.007v-.053c0-.088.062-.177.186-.265l3.055-1.617z"/>
    <path fill="url(#paint12_linear)" d="M57.123 95.443c-1.7 0-3.054-.486-4.064-1.457-1.01-.972-1.514-2.27-1.514-3.896v-8.374c0-1.625.505-2.915 1.514-3.87 1.01-.97 2.364-1.457 4.065-1.457 1.717 0 3.09.486 4.117 1.458 1.027.972 1.54 2.261 1.54 3.869v8.374c0 1.625-.513 2.924-1.54 3.895-1.027.972-2.4 1.458-4.117 1.458zm0-1.643c1.134 0 2.046-.327 2.737-.98.69-.654 1.036-1.529 1.036-2.624v-8.56c0-1.077-.346-1.943-1.036-2.597-.673-.653-1.585-.98-2.736-.98-1.116 0-2.01.327-2.683.98-.673.654-1.01 1.52-1.01 2.597v8.56c0 1.095.337 1.97 1.01 2.623.672.654 1.567.981 2.682.981z"/>
    <path fill="url(#paint13_linear)" d="M68.708 76.707c.106-.053.222-.08.346-.08h1.434c.177 0 .266.09.266.266v18.02c0 .177-.089.265-.266.265h-1.355c-.177 0-.265-.088-.265-.265V78.774c0-.035-.018-.061-.053-.08-.018-.017-.045-.017-.08 0l-2.816 1.14-.106.027c-.106 0-.177-.07-.213-.212l-.132-1.007v-.053c0-.088.061-.177.185-.265l3.055-1.617z"/>
    <path fill="url(#paint14_linear)" d="M80.678 95.443c-1.7 0-3.055-.486-4.064-1.457-1.01-.972-1.514-2.27-1.514-3.896v-8.374c0-1.625.504-2.915 1.514-3.87 1.01-.97 2.364-1.457 4.064-1.457 1.718 0 3.09.486 4.118 1.458 1.027.972 1.54 2.261 1.54 3.869v8.374c0 1.625-.513 2.924-1.54 3.895-1.028.972-2.4 1.458-4.118 1.458zm0-1.643c1.133 0 2.046-.327 2.736-.98.69-.654 1.036-1.529 1.036-2.624v-8.56c0-1.077-.345-1.943-1.036-2.597-.673-.653-1.585-.98-2.736-.98-1.116 0-2.01.327-2.683.98-.673.654-1.01 1.52-1.01 2.597v8.56c0 1.095.337 1.97 1.01 2.623.673.654 1.567.981 2.683.981z"/>
    <path fill="url(#paint15_linear)" d="M92.263 76.707c.106-.053.221-.08.345-.08h1.435c.177 0 .265.09.265.266v18.02c0 .177-.088.265-.265.265h-1.355c-.177 0-.266-.088-.266-.265V78.774c0-.035-.017-.061-.053-.08-.018-.017-.044-.017-.08 0l-2.815 1.14-.107.027c-.106 0-.177-.07-.212-.212l-.133-1.007v-.053c0-.088.062-.177.186-.265l3.055-1.617z"/>
    <path fill="url(#paint16_linear)" d="M104.233 95.443c-1.7 0-3.055-.486-4.065-1.457-1.009-.972-1.514-2.27-1.514-3.896v-8.374c0-1.625.505-2.915 1.514-3.87 1.01-.97 2.365-1.457 4.065-1.457 1.718 0 3.09.486 4.117 1.458 1.027.972 1.541 2.261 1.541 3.869v8.374c0 1.625-.514 2.924-1.541 3.895-1.027.972-2.399 1.458-4.117 1.458zm0-1.643c1.133 0 2.045-.327 2.736-.98.69-.654 1.036-1.529 1.036-2.624v-8.56c0-1.077-.346-1.943-1.036-2.597-.673-.653-1.585-.98-2.736-.98-1.116 0-2.01.327-2.683.98-.673.654-1.01 1.52-1.01 2.597v8.56c0 1.095.337 1.97 1.01 2.623.673.654 1.567.981 2.683.981z"/>
    <path fill="url(#paint17_linear)" d="M115.817 76.707c.107-.053.222-.08.346-.08h1.434c.177 0 .266.09.266.266v18.02c0 .177-.089.265-.266.265h-1.355c-.177 0-.265-.088-.265-.265V78.774c0-.035-.018-.061-.053-.08-.018-.017-.045-.017-.08 0l-2.816 1.14-.106.027c-.106 0-.177-.07-.213-.212l-.132-1.007v-.053c0-.088.062-.177.186-.265l3.054-1.617z"/>
    <path fill="url(#paint18_linear)" d="M127.787 95.443c-1.7 0-3.055-.486-4.064-1.457-1.009-.972-1.514-2.27-1.514-3.896v-8.374c0-1.625.505-2.915 1.514-3.87 1.009-.97 2.364-1.457 4.064-1.457 1.718 0 3.091.486 4.118 1.458 1.027.972 1.54 2.261 1.54 3.869v8.374c0 1.625-.513 2.924-1.54 3.895-1.027.972-2.4 1.458-4.118 1.458zm0-1.643c1.134 0 2.046-.327 2.736-.98.691-.654 1.036-1.529 1.036-2.624v-8.56c0-1.077-.345-1.943-1.036-2.597-.673-.653-1.585-.98-2.736-.98-1.115 0-2.01.327-2.683.98-.673.654-1.009 1.52-1.009 2.597v8.56c0 1.095.336 1.97 1.009 2.623.673.654 1.568.981 2.683.981z"/>
    <path fill="url(#paint19_linear)" d="M139.372 76.707c.106-.053.221-.08.345-.08h1.435c.177 0 .265.09.265.266v18.02c0 .177-.088.265-.265.265h-1.355c-.177 0-.266-.088-.266-.265V78.774c0-.035-.017-.061-.053-.08-.017-.017-.044-.017-.079 0l-2.816 1.14-.106.027c-.107 0-.178-.07-.213-.212l-.133-1.007v-.053c0-.088.062-.177.186-.265l3.055-1.617z"/>
    <path fill="url(#paint20_linear)" d="M151.342 95.443c-1.7 0-3.055-.486-4.064-1.457-1.01-.972-1.514-2.27-1.514-3.896v-8.374c0-1.625.504-2.915 1.514-3.87 1.009-.97 2.364-1.457 4.064-1.457 1.718 0 3.09.486 4.117 1.458 1.027.972 1.541 2.261 1.541 3.869v8.374c0 1.625-.514 2.924-1.541 3.895-1.027.972-2.399 1.458-4.117 1.458zm0-1.643c1.133 0 2.045-.327 2.736-.98.691-.654 1.036-1.529 1.036-2.624v-8.56c0-1.077-.345-1.943-1.036-2.597-.673-.653-1.585-.98-2.736-.98-1.116 0-2.01.327-2.683.98-.673.654-1.009 1.52-1.009 2.597v8.56c0 1.095.336 1.97 1.009 2.623.673.654 1.567.981 2.683.981z"/>
    <path fill="url(#paint21_linear)" d="M29.133 127.832c-1.7 0-3.055-.486-4.064-1.457-1.01-.972-1.514-2.27-1.514-3.896v-8.374c0-1.625.504-2.915 1.514-3.869 1.01-.972 2.364-1.457 4.064-1.457 1.718 0 3.09.485 4.117 1.457 1.028.972 1.541 2.261 1.541 3.869v8.374c0 1.626-.513 2.924-1.54 3.896-1.028.971-2.4 1.457-4.118 1.457zm0-1.643c1.133 0 2.045-.327 2.736-.98.69-.654 1.036-1.528 1.036-2.624v-8.559c0-1.078-.345-1.944-1.036-2.597-.673-.654-1.585-.981-2.736-.981-1.116 0-2.01.327-2.683.981-.673.653-1.01 1.519-1.01 2.597v8.559c0 1.096.337 1.97 1.01 2.624.673.653 1.567.98 2.683.98z"/>
    <path fill="url(#paint22_linear)" d="M44.153 127.832c-1.7 0-3.055-.486-4.064-1.457-1.01-.972-1.514-2.27-1.514-3.896v-8.374c0-1.625.504-2.915 1.514-3.869 1.01-.972 2.364-1.457 4.064-1.457 1.718 0 3.09.485 4.117 1.457 1.027.972 1.541 2.261 1.541 3.869v8.374c0 1.626-.514 2.924-1.54 3.896-1.028.971-2.4 1.457-4.118 1.457zm0-1.643c1.133 0 2.045-.327 2.736-.98.69-.654 1.036-1.528 1.036-2.624v-8.559c0-1.078-.345-1.944-1.036-2.597-.673-.654-1.585-.981-2.736-.981-1.116 0-2.01.327-2.683.981-.673.653-1.01 1.519-1.01 2.597v8.559c0 1.096.337 1.97 1.01 2.624.673.653 1.567.98 2.683.98z"/>
    <path fill="url(#paint23_linear)" d="M55.738 109.097c.106-.053.221-.08.345-.08h1.434c.177 0 .266.088.266.265v18.02c0 .177-.089.265-.266.265h-1.354c-.177 0-.266-.088-.266-.265v-16.138c0-.036-.018-.062-.053-.08-.018-.018-.044-.018-.08 0l-2.816 1.14-.106.026c-.106 0-.177-.071-.212-.212l-.133-1.007v-.053c0-.088.062-.177.186-.265l3.055-1.616z"/>
    <path fill="url(#paint24_linear)" d="M67.707 127.832c-1.7 0-3.054-.486-4.064-1.457-1.01-.972-1.514-2.27-1.514-3.896v-8.374c0-1.625.505-2.915 1.514-3.869 1.01-.972 2.364-1.457 4.064-1.457 1.718 0 3.09.485 4.118 1.457 1.027.972 1.54 2.261 1.54 3.869v8.374c0 1.626-.513 2.924-1.54 3.896-1.027.971-2.4 1.457-4.118 1.457zm0-1.643c1.134 0 2.046-.327 2.737-.98.69-.654 1.036-1.528 1.036-2.624v-8.559c0-1.078-.346-1.944-1.036-2.597-.673-.654-1.585-.981-2.737-.981-1.115 0-2.01.327-2.682.981-.673.653-1.01 1.519-1.01 2.597v8.559c0 1.096.337 1.97 1.01 2.624.672.653 1.567.98 2.682.98z"/>
    <path fill="url(#paint25_linear)" d="M82.728 127.832c-1.7 0-3.055-.486-4.065-1.457-1.01-.972-1.514-2.27-1.514-3.896v-8.374c0-1.625.505-2.915 1.514-3.869 1.01-.972 2.364-1.457 4.065-1.457 1.717 0 3.09.485 4.117 1.457 1.027.972 1.54 2.261 1.54 3.869v8.374c0 1.626-.513 2.924-1.54 3.896-1.027.971-2.4 1.457-4.117 1.457zm0-1.643c1.133 0 2.045-.327 2.736-.98.69-.654 1.035-1.528 1.035-2.624v-8.559c0-1.078-.345-1.944-1.035-2.597-.673-.654-1.585-.981-2.736-.981-1.116 0-2.01.327-2.683.981-.673.653-1.01 1.519-1.01 2.597v8.559c0 1.096.337 1.97 1.01 2.624.672.653 1.567.98 2.683.98z"/>
    <path fill="url(#paint26_linear)" d="M97.747 127.832c-1.7 0-3.054-.486-4.064-1.457-1.01-.972-1.514-2.27-1.514-3.896v-8.374c0-1.625.505-2.915 1.514-3.869 1.01-.972 2.364-1.457 4.064-1.457 1.718 0 3.091.485 4.118 1.457 1.027.972 1.541 2.261 1.541 3.869v8.374c0 1.626-.514 2.924-1.541 3.896-1.027.971-2.4 1.457-4.118 1.457zm0-1.643c1.134 0 2.046-.327 2.736-.98.691-.654 1.036-1.528 1.036-2.624v-8.559c0-1.078-.345-1.944-1.036-2.597-.672-.654-1.585-.981-2.736-.981-1.115 0-2.01.327-2.683.981-.672.653-1.009 1.519-1.009 2.597v8.559c0 1.096.336 1.97 1.01 2.624.672.653 1.567.98 2.682.98z"/>
    <path fill="url(#paint27_linear)" d="M112.767 127.832c-1.7 0-3.054-.486-4.064-1.457-1.009-.972-1.514-2.27-1.514-3.896v-8.374c0-1.625.505-2.915 1.514-3.869 1.01-.972 2.364-1.457 4.064-1.457 1.718 0 3.091.485 4.118 1.457 1.027.972 1.54 2.261 1.54 3.869v8.374c0 1.626-.513 2.924-1.54 3.896-1.027.971-2.4 1.457-4.118 1.457zm0-1.643c1.134 0 2.046-.327 2.736-.98.691-.654 1.036-1.528 1.036-2.624v-8.559c0-1.078-.345-1.944-1.036-2.597-.673-.654-1.585-.981-2.736-.981-1.115 0-2.01.327-2.683.981-.673.653-1.009 1.519-1.009 2.597v8.559c0 1.096.336 1.97 1.009 2.624.673.653 1.568.98 2.683.98z"/>
    <path fill="url(#paint28_linear)" d="M124.352 109.097c.106-.053.221-.08.345-.08h1.435c.177 0 .265.088.265.265v18.02c0 .177-.088.265-.265.265h-1.355c-.177 0-.266-.088-.266-.265v-16.138c0-.036-.017-.062-.053-.08-.017-.018-.044-.018-.079 0l-2.816 1.14-.106.026c-.107 0-.177-.071-.213-.212l-.133-1.007v-.053c0-.088.062-.177.186-.265l3.055-1.616z"/>
    <path fill="url(#paint29_linear)" d="M136.322 127.832c-1.7 0-3.055-.486-4.064-1.457-1.01-.972-1.514-2.27-1.514-3.896v-8.374c0-1.625.504-2.915 1.514-3.869 1.009-.972 2.364-1.457 4.064-1.457 1.718 0 3.09.485 4.117 1.457 1.027.972 1.541 2.261 1.541 3.869v8.374c0 1.626-.514 2.924-1.541 3.896-1.027.971-2.399 1.457-4.117 1.457zm0-1.643c1.133 0 2.045-.327 2.736-.98.691-.654 1.036-1.528 1.036-2.624v-8.559c0-1.078-.345-1.944-1.036-2.597-.673-.654-1.585-.981-2.736-.981-1.116 0-2.01.327-2.683.981-.673.653-1.009 1.519-1.009 2.597v8.559c0 1.096.336 1.97 1.009 2.624.673.653 1.567.98 2.683.98z"/>
    <path fill="url(#paint30_linear)" d="M151.342 127.832c-1.7 0-3.055-.486-4.064-1.457-1.01-.972-1.514-2.27-1.514-3.896v-8.374c0-1.625.504-2.915 1.514-3.869 1.009-.972 2.364-1.457 4.064-1.457 1.718 0 3.09.485 4.117 1.457 1.027.972 1.541 2.261 1.541 3.869v8.374c0 1.626-.514 2.924-1.541 3.896-1.027.971-2.399 1.457-4.117 1.457zm0-1.643c1.133 0 2.045-.327 2.736-.98.691-.654 1.036-1.528 1.036-2.624v-8.559c0-1.078-.345-1.944-1.036-2.597-.673-.654-1.585-.981-2.736-.981-1.116 0-2.01.327-2.683.981-.673.653-1.009 1.519-1.009 2.597v8.559c0 1.096.336 1.97 1.009 2.624.673.653 1.567.98 2.683.98z"/>
    <path fill="url(#paint31_linear)" d="M18.549 160.221c-1.7 0-3.055-.485-4.064-1.457-1.01-.972-1.514-2.27-1.514-3.896v-8.374c0-1.625.504-2.915 1.514-3.869 1.01-.971 2.364-1.457 4.064-1.457 1.718 0 3.09.486 4.117 1.457 1.027.972 1.541 2.262 1.541 3.869v8.374c0 1.626-.514 2.924-1.54 3.896-1.028.972-2.4 1.457-4.118 1.457zm0-1.643c1.133 0 2.045-.326 2.736-.98.69-.654 1.036-1.528 1.036-2.624v-8.559c0-1.078-.345-1.944-1.036-2.597-.673-.654-1.585-.981-2.736-.981-1.116 0-2.01.327-2.683.981-.673.653-1.01 1.519-1.01 2.597v8.559c0 1.096.337 1.97 1.01 2.624.673.654 1.567.98 2.683.98z"/>
    <path fill="url(#paint32_linear)" d="M30.134 141.486c.106-.053.221-.08.345-.08h1.434c.178 0 .266.089.266.265v18.02c0 .177-.088.265-.266.265H30.56c-.177 0-.266-.088-.266-.265v-16.138c0-.036-.018-.062-.053-.08-.018-.017-.044-.017-.08 0l-2.816 1.14-.106.026c-.106 0-.177-.07-.212-.212l-.133-1.007v-.053c0-.088.062-.176.186-.265l3.055-1.616z"/>
    <path fill="url(#paint33_linear)" d="M42.104 160.221c-1.7 0-3.055-.485-4.065-1.457-1.01-.972-1.514-2.27-1.514-3.896v-8.374c0-1.625.505-2.915 1.514-3.869 1.01-.971 2.364-1.457 4.065-1.457 1.717 0 3.09.486 4.117 1.457 1.027.972 1.54 2.262 1.54 3.869v8.374c0 1.626-.513 2.924-1.54 3.896-1.027.972-2.4 1.457-4.117 1.457zm0-1.643c1.133 0 2.045-.326 2.736-.98.69-.654 1.036-1.528 1.036-2.624v-8.559c0-1.078-.346-1.944-1.036-2.597-.673-.654-1.585-.981-2.736-.981-1.116 0-2.01.327-2.683.981-.673.653-1.01 1.519-1.01 2.597v8.559c0 1.096.337 1.97 1.01 2.624.673.654 1.567.98 2.683.98z"/>
    <path fill="url(#paint34_linear)" d="M57.123 160.221c-1.7 0-3.054-.485-4.064-1.457-1.01-.972-1.514-2.27-1.514-3.896v-8.374c0-1.625.505-2.915 1.514-3.869 1.01-.971 2.364-1.457 4.065-1.457 1.717 0 3.09.486 4.117 1.457 1.027.972 1.54 2.262 1.54 3.869v8.374c0 1.626-.513 2.924-1.54 3.896-1.027.972-2.4 1.457-4.117 1.457zm0-1.643c1.134 0 2.046-.326 2.737-.98.69-.654 1.036-1.528 1.036-2.624v-8.559c0-1.078-.346-1.944-1.036-2.597-.673-.654-1.585-.981-2.736-.981-1.116 0-2.01.327-2.683.981-.673.653-1.01 1.519-1.01 2.597v8.559c0 1.096.337 1.97 1.01 2.624.672.654 1.567.98 2.682.98z"/>
    <path fill="url(#paint35_linear)" d="M72.144 160.221c-1.7 0-3.055-.485-4.065-1.457-1.01-.972-1.514-2.27-1.514-3.896v-8.374c0-1.625.505-2.915 1.514-3.869 1.01-.971 2.364-1.457 4.065-1.457 1.717 0 3.09.486 4.117 1.457 1.027.972 1.54 2.262 1.54 3.869v8.374c0 1.626-.513 2.924-1.54 3.896-1.027.972-2.4 1.457-4.117 1.457zm0-1.643c1.133 0 2.045-.326 2.735-.98.691-.654 1.036-1.528 1.036-2.624v-8.559c0-1.078-.345-1.944-1.036-2.597-.672-.654-1.584-.981-2.736-.981-1.115 0-2.01.327-2.683.981-.672.653-1.009 1.519-1.009 2.597v8.559c0 1.096.337 1.97 1.01 2.624.672.654 1.567.98 2.683.98z"/>
    <path fill="url(#paint36_linear)" d="M83.728 141.486c.106-.053.222-.08.346-.08h1.434c.177 0 .266.089.266.265v18.02c0 .177-.089.265-.266.265h-1.355c-.177 0-.265-.088-.265-.265v-16.138c0-.036-.018-.062-.054-.08-.017-.017-.044-.017-.08 0l-2.815 1.14-.106.026c-.106 0-.177-.07-.213-.212l-.133-1.007v-.053c0-.088.062-.176.186-.265l3.055-1.616z"/>
    <path fill="url(#paint37_linear)" d="M95.698 160.221c-1.7 0-3.055-.485-4.064-1.457-1.01-.972-1.514-2.27-1.514-3.896v-8.374c0-1.625.504-2.915 1.514-3.869 1.01-.971 2.364-1.457 4.064-1.457 1.718 0 3.09.486 4.118 1.457 1.027.972 1.54 2.262 1.54 3.869v8.374c0 1.626-.513 2.924-1.54 3.896-1.028.972-2.4 1.457-4.118 1.457zm0-1.643c1.134 0 2.046-.326 2.736-.98.69-.654 1.036-1.528 1.036-2.624v-8.559c0-1.078-.345-1.944-1.036-2.597-.673-.654-1.585-.981-2.736-.981-1.116 0-2.01.327-2.683.981-.673.653-1.01 1.519-1.01 2.597v8.559c0 1.096.337 1.97 1.01 2.624.673.654 1.567.98 2.683.98z"/>
    <path fill="url(#paint38_linear)" d="M107.283 141.486c.106-.053.221-.08.345-.08h1.435c.177 0 .265.089.265.265v18.02c0 .177-.088.265-.265.265h-1.355c-.177 0-.266-.088-.266-.265v-16.138c0-.036-.018-.062-.053-.08-.018-.017-.044-.017-.08 0l-2.815 1.14-.107.026c-.106 0-.177-.07-.212-.212l-.133-1.007v-.053c0-.088.062-.176.186-.265l3.055-1.616z"/>
    <path fill="url(#paint39_linear)" d="M119.253 160.221c-1.7 0-3.055-.485-4.065-1.457-1.009-.972-1.514-2.27-1.514-3.896v-8.374c0-1.625.505-2.915 1.514-3.869 1.01-.971 2.365-1.457 4.065-1.457 1.717 0 3.09.486 4.117 1.457 1.027.972 1.541 2.262 1.541 3.869v8.374c0 1.626-.514 2.924-1.541 3.896s-2.4 1.457-4.117 1.457zm0-1.643c1.133 0 2.045-.326 2.736-.98.69-.654 1.036-1.528 1.036-2.624v-8.559c0-1.078-.346-1.944-1.036-2.597-.673-.654-1.585-.981-2.736-.981-1.116 0-2.01.327-2.683.981-.673.653-1.01 1.519-1.01 2.597v8.559c0 1.096.337 1.97 1.01 2.624.673.654 1.567.98 2.683.98z"/>
    <path fill="url(#paint40_linear)" d="M130.837 141.486c.107-.053.222-.08.346-.08h1.434c.177 0 .266.089.266.265v18.02c0 .177-.089.265-.266.265h-1.355c-.177 0-.265-.088-.265-.265v-16.138c0-.036-.018-.062-.053-.08-.018-.017-.045-.017-.08 0l-2.816 1.14-.106.026c-.106 0-.177-.07-.213-.212l-.132-1.007v-.053c0-.088.062-.176.186-.265l3.054-1.616z"/>
    <path fill="url(#paint41_linear)" d="M142.807 160.221c-1.7 0-3.055-.485-4.064-1.457-1.009-.972-1.514-2.27-1.514-3.896v-8.374c0-1.625.505-2.915 1.514-3.869 1.009-.971 2.364-1.457 4.064-1.457 1.718 0 3.091.486 4.118 1.457 1.027.972 1.54 2.262 1.54 3.869v8.374c0 1.626-.513 2.924-1.54 3.896-1.027.972-2.4 1.457-4.118 1.457zm0-1.643c1.134 0 2.046-.326 2.736-.98.691-.654 1.036-1.528 1.036-2.624v-8.559c0-1.078-.345-1.944-1.036-2.597-.673-.654-1.585-.981-2.736-.981-1.115 0-2.01.327-2.683.981-.673.653-1.009 1.519-1.009 2.597v8.559c0 1.096.336 1.97 1.009 2.624.673.654 1.568.98 2.683.98z"/>
    <path fill="url(#paint42_linear)" d="M154.392 141.486c.106-.053.221-.08.345-.08h1.435c.177 0 .265.089.265.265v18.02c0 .177-.088.265-.265.265h-1.355c-.177 0-.266-.088-.266-.265v-16.138c0-.036-.017-.062-.053-.08-.017-.017-.044-.017-.079 0l-2.816 1.14-.106.026c-.107 0-.178-.07-.213-.212l-.133-1.007v-.053c0-.088.062-.176.186-.265l3.055-1.616z"/>
    <path fill="url(#paint43_linear)" d="M10.014 192.611c-1.7 0-3.054-.486-4.064-1.458-1.01-.971-1.514-2.27-1.514-3.895v-8.374c0-1.626.505-2.915 1.514-3.869 1.01-.972 2.364-1.458 4.064-1.458 1.718 0 3.09.486 4.118 1.458 1.027.971 1.54 2.261 1.54 3.869v8.374c0 1.625-.513 2.924-1.54 3.895-1.027.972-2.4 1.458-4.118 1.458zm0-1.643c1.134 0 2.046-.327 2.736-.981.691-.653 1.036-1.528 1.036-2.623v-8.56c0-1.078-.345-1.943-1.036-2.597-.672-.654-1.585-.98-2.736-.98-1.115 0-2.01.326-2.683.98-.673.654-1.009 1.519-1.009 2.597v8.56c0 1.095.336 1.97 1.01 2.623.672.654 1.567.981 2.682.981z"/>
    <path fill="url(#paint44_linear)" d="M21.599 173.875c.106-.053.221-.079.345-.079h1.435c.177 0 .265.088.265.265v18.02c0 .176-.088.265-.265.265h-1.355c-.177 0-.266-.089-.266-.265v-16.139c0-.035-.017-.062-.053-.079-.017-.018-.044-.018-.08 0l-2.815 1.139-.106.027c-.107 0-.178-.071-.213-.212l-.133-1.007v-.053c0-.089.062-.177.186-.265l3.055-1.617z"/>
    <path fill="url(#paint45_linear)" d="M33.569 192.611c-1.7 0-3.055-.486-4.064-1.458-1.01-.971-1.514-2.27-1.514-3.895v-8.374c0-1.626.504-2.915 1.514-3.869 1.01-.972 2.364-1.458 4.064-1.458 1.718 0 3.09.486 4.117 1.458 1.028.971 1.541 2.261 1.541 3.869v8.374c0 1.625-.513 2.924-1.54 3.895-1.028.972-2.4 1.458-4.118 1.458zm0-1.643c1.133 0 2.045-.327 2.736-.981.69-.653 1.036-1.528 1.036-2.623v-8.56c0-1.078-.345-1.943-1.036-2.597-.673-.654-1.585-.98-2.736-.98-1.116 0-2.01.326-2.683.98-.673.654-1.01 1.519-1.01 2.597v8.56c0 1.095.337 1.97 1.01 2.623.673.654 1.567.981 2.683.981z"/>
    <path fill="url(#paint46_linear)" d="M45.154 173.875c.106-.053.221-.079.345-.079h1.434c.178 0 .266.088.266.265v18.02c0 .176-.088.265-.266.265H45.58c-.177 0-.266-.089-.266-.265v-16.139c0-.035-.018-.062-.053-.079-.018-.018-.044-.018-.08 0l-2.816 1.139-.106.027c-.106 0-.177-.071-.212-.212l-.133-1.007v-.053c0-.089.062-.177.186-.265l3.055-1.617z"/>
    <path fill="url(#paint47_linear)" d="M57.123 192.611c-1.7 0-3.054-.486-4.064-1.458-1.01-.971-1.514-2.27-1.514-3.895v-8.374c0-1.626.505-2.915 1.514-3.869 1.01-.972 2.364-1.458 4.065-1.458 1.717 0 3.09.486 4.117 1.458 1.027.971 1.54 2.261 1.54 3.869v8.374c0 1.625-.513 2.924-1.54 3.895-1.027.972-2.4 1.458-4.117 1.458zm0-1.643c1.134 0 2.046-.327 2.737-.981.69-.653 1.036-1.528 1.036-2.623v-8.56c0-1.078-.346-1.943-1.036-2.597-.673-.654-1.585-.98-2.736-.98-1.116 0-2.01.326-2.683.98-.673.654-1.01 1.519-1.01 2.597v8.56c0 1.095.337 1.97 1.01 2.623.672.654 1.567.981 2.682.981z"/>
    <path fill="url(#paint48_linear)" d="M68.708 173.875c.106-.053.222-.079.346-.079h1.434c.177 0 .266.088.266.265v18.02c0 .176-.089.265-.266.265h-1.355c-.177 0-.265-.089-.265-.265v-16.139c0-.035-.018-.062-.053-.079-.018-.018-.045-.018-.08 0l-2.816 1.139-.106.027c-.106 0-.177-.071-.213-.212l-.132-1.007v-.053c0-.089.061-.177.185-.265l3.055-1.617z"/>
    <path fill="url(#paint49_linear)" d="M80.678 192.611c-1.7 0-3.055-.486-4.064-1.458-1.01-.971-1.514-2.27-1.514-3.895v-8.374c0-1.626.504-2.915 1.514-3.869 1.01-.972 2.364-1.458 4.064-1.458 1.718 0 3.09.486 4.118 1.458 1.027.971 1.54 2.261 1.54 3.869v8.374c0 1.625-.513 2.924-1.54 3.895-1.028.972-2.4 1.458-4.118 1.458zm0-1.643c1.133 0 2.046-.327 2.736-.981.69-.653 1.036-1.528 1.036-2.623v-8.56c0-1.078-.345-1.943-1.036-2.597-.673-.654-1.585-.98-2.736-.98-1.116 0-2.01.326-2.683.98-.673.654-1.01 1.519-1.01 2.597v8.56c0 1.095.337 1.97 1.01 2.623.673.654 1.567.981 2.683.981z"/>
    <path fill="url(#paint50_linear)" d="M92.263 173.875c.106-.053.221-.079.345-.079h1.435c.177 0 .265.088.265.265v18.02c0 .176-.088.265-.265.265h-1.355c-.177 0-.266-.089-.266-.265v-16.139c0-.035-.017-.062-.053-.079-.018-.018-.044-.018-.08 0l-2.815 1.139-.107.027c-.106 0-.177-.071-.212-.212l-.133-1.007v-.053c0-.089.062-.177.186-.265l3.055-1.617z"/>
    <path fill="url(#paint51_linear)" d="M104.233 192.611c-1.7 0-3.055-.486-4.065-1.458-1.009-.971-1.514-2.27-1.514-3.895v-8.374c0-1.626.505-2.915 1.514-3.869 1.01-.972 2.365-1.458 4.065-1.458 1.718 0 3.09.486 4.117 1.458 1.027.971 1.541 2.261 1.541 3.869v8.374c0 1.625-.514 2.924-1.541 3.895-1.027.972-2.399 1.458-4.117 1.458zm0-1.643c1.133 0 2.045-.327 2.736-.981.69-.653 1.036-1.528 1.036-2.623v-8.56c0-1.078-.346-1.943-1.036-2.597-.673-.654-1.585-.98-2.736-.98-1.116 0-2.01.326-2.683.98-.673.654-1.01 1.519-1.01 2.597v8.56c0 1.095.337 1.97 1.01 2.623.673.654 1.567.981 2.683.981z"/>
    <path fill="url(#paint52_linear)" d="M115.817 173.875c.107-.053.222-.079.346-.079h1.434c.177 0 .266.088.266.265v18.02c0 .176-.089.265-.266.265h-1.355c-.177 0-.265-.089-.265-.265v-16.139c0-.035-.018-.062-.053-.079-.018-.018-.045-.018-.08 0l-2.816 1.139-.106.027c-.106 0-.177-.071-.213-.212l-.132-1.007v-.053c0-.089.062-.177.186-.265l3.054-1.617z"/>
    <path fill="url(#paint53_linear)" d="M127.787 192.611c-1.7 0-3.055-.486-4.064-1.458-1.009-.971-1.514-2.27-1.514-3.895v-8.374c0-1.626.505-2.915 1.514-3.869 1.009-.972 2.364-1.458 4.064-1.458 1.718 0 3.091.486 4.118 1.458 1.027.971 1.54 2.261 1.54 3.869v8.374c0 1.625-.513 2.924-1.54 3.895-1.027.972-2.4 1.458-4.118 1.458zm0-1.643c1.134 0 2.046-.327 2.736-.981.691-.653 1.036-1.528 1.036-2.623v-8.56c0-1.078-.345-1.943-1.036-2.597-.673-.654-1.585-.98-2.736-.98-1.115 0-2.01.326-2.683.98-.673.654-1.009 1.519-1.009 2.597v8.56c0 1.095.336 1.97 1.009 2.623.673.654 1.568.981 2.683.981z"/>
    <path fill="url(#paint54_linear)" d="M139.372 173.875c.106-.053.221-.079.345-.079h1.435c.177 0 .265.088.265.265v18.02c0 .176-.088.265-.265.265h-1.355c-.177 0-.266-.089-.266-.265v-16.139c0-.035-.017-.062-.053-.079-.017-.018-.044-.018-.079 0l-2.816 1.139-.106.027c-.107 0-.178-.071-.213-.212l-.133-1.007v-.053c0-.089.062-.177.186-.265l3.055-1.617z"/>
    <path fill="url(#paint55_linear)" d="M151.342 192.611c-1.7 0-3.055-.486-4.064-1.458-1.01-.971-1.514-2.27-1.514-3.895v-8.374c0-1.626.504-2.915 1.514-3.869 1.009-.972 2.364-1.458 4.064-1.458 1.718 0 3.09.486 4.117 1.458 1.027.971 1.541 2.261 1.541 3.869v8.374c0 1.625-.514 2.924-1.541 3.895-1.027.972-2.399 1.458-4.117 1.458zm0-1.643c1.133 0 2.045-.327 2.736-.981.691-.653 1.036-1.528 1.036-2.623v-8.56c0-1.078-.345-1.943-1.036-2.597-.673-.654-1.585-.98-2.736-.98-1.116 0-2.01.326-2.683.98-.673.654-1.009 1.519-1.009 2.597v8.56c0 1.095.336 1.97 1.009 2.623.673.654 1.567.981 2.683.981z"/>
    <path fill="url(#paint56_linear)" d="M5.578 225c-1.7 0-3.054-.486-4.064-1.458-1.01-.971-1.514-2.27-1.514-3.895v-8.374c0-1.625.505-2.915 1.514-3.869 1.01-.972 2.364-1.458 4.064-1.458 1.718 0 3.09.486 4.118 1.458 1.027.971 1.54 2.261 1.54 3.869v8.374c0 1.625-.513 2.924-1.54 3.895-1.027.972-2.4 1.458-4.118 1.458zm0-1.643c1.134 0 2.046-.327 2.736-.981.691-.653 1.036-1.528 1.036-2.623v-8.56c0-1.077-.345-1.943-1.036-2.597-.672-.653-1.585-.98-2.736-.98-1.115 0-2.01.327-2.683.98-.672.654-1.009 1.52-1.009 2.597v8.56c0 1.095.337 1.97 1.01 2.623.672.654 1.567.981 2.682.981z"/>
    <path fill="url(#paint57_linear)" d="M17.163 206.264c.106-.053.221-.079.345-.079h1.435c.177 0 .265.088.265.265v18.02c0 .177-.088.265-.265.265h-1.355c-.177 0-.265-.088-.265-.265v-16.139c0-.035-.018-.062-.054-.079-.017-.018-.044-.018-.08 0l-2.815 1.139-.106.027c-.107 0-.177-.071-.213-.212l-.133-1.007v-.053c0-.089.062-.177.186-.265l3.055-1.617z"/>
    <path fill="url(#paint58_linear)" d="M29.133 225c-1.7 0-3.055-.486-4.064-1.458-1.01-.971-1.514-2.27-1.514-3.895v-8.374c0-1.625.504-2.915 1.514-3.869 1.01-.972 2.364-1.458 4.064-1.458 1.718 0 3.09.486 4.117 1.458 1.028.971 1.541 2.261 1.541 3.869v8.374c0 1.625-.513 2.924-1.54 3.895-1.028.972-2.4 1.458-4.118 1.458zm0-1.643c1.133 0 2.045-.327 2.736-.981.69-.653 1.036-1.528 1.036-2.623v-8.56c0-1.077-.345-1.943-1.036-2.597-.673-.653-1.585-.98-2.736-.98-1.116 0-2.01.327-2.683.98-.673.654-1.01 1.52-1.01 2.597v8.56c0 1.095.337 1.97 1.01 2.623.673.654 1.567.981 2.683.981z"/>
    <path fill="url(#paint59_linear)" d="M44.153 225c-1.7 0-3.055-.486-4.064-1.458-1.01-.971-1.514-2.27-1.514-3.895v-8.374c0-1.625.504-2.915 1.514-3.869 1.01-.972 2.364-1.458 4.064-1.458 1.718 0 3.09.486 4.117 1.458 1.027.971 1.541 2.261 1.541 3.869v8.374c0 1.625-.514 2.924-1.54 3.895-1.028.972-2.4 1.458-4.118 1.458zm0-1.643c1.133 0 2.045-.327 2.736-.981.69-.653 1.036-1.528 1.036-2.623v-8.56c0-1.077-.345-1.943-1.036-2.597-.673-.653-1.585-.98-2.736-.98-1.116 0-2.01.327-2.683.98-.673.654-1.01 1.52-1.01 2.597v8.56c0 1.095.337 1.97 1.01 2.623.673.654 1.567.981 2.683.981z"/>
    <path fill="url(#paint60_linear)" d="M55.738 206.264c.106-.053.221-.079.345-.079h1.434c.177 0 .266.088.266.265v18.02c0 .177-.089.265-.266.265h-1.354c-.177 0-.266-.088-.266-.265v-16.139c0-.035-.018-.062-.053-.079-.018-.018-.044-.018-.08 0l-2.816 1.139-.106.027c-.106 0-.177-.071-.212-.212l-.133-1.007v-.053c0-.089.062-.177.186-.265l3.055-1.617z"/>
    <path fill="url(#paint61_linear)" d="M67.707 225c-1.7 0-3.054-.486-4.064-1.458-1.01-.971-1.514-2.27-1.514-3.895v-8.374c0-1.625.505-2.915 1.514-3.869 1.01-.972 2.364-1.458 4.064-1.458 1.718 0 3.09.486 4.118 1.458 1.027.971 1.54 2.261 1.54 3.869v8.374c0 1.625-.513 2.924-1.54 3.895-1.027.972-2.4 1.458-4.118 1.458zm0-1.643c1.134 0 2.046-.327 2.737-.981.69-.653 1.036-1.528 1.036-2.623v-8.56c0-1.077-.346-1.943-1.036-2.597-.673-.653-1.585-.98-2.737-.98-1.115 0-2.01.327-2.682.98-.673.654-1.01 1.52-1.01 2.597v8.56c0 1.095.337 1.97 1.01 2.623.672.654 1.567.981 2.682.981z"/>
    <path fill="url(#paint62_linear)" d="M82.728 225c-1.7 0-3.055-.486-4.065-1.458-1.01-.971-1.514-2.27-1.514-3.895v-8.374c0-1.625.505-2.915 1.514-3.869 1.01-.972 2.364-1.458 4.065-1.458 1.717 0 3.09.486 4.117 1.458 1.027.971 1.54 2.261 1.54 3.869v8.374c0 1.625-.513 2.924-1.54 3.895-1.027.972-2.4 1.458-4.117 1.458zm0-1.643c1.133 0 2.045-.327 2.736-.981.69-.653 1.035-1.528 1.035-2.623v-8.56c0-1.077-.345-1.943-1.035-2.597-.673-.653-1.585-.98-2.736-.98-1.116 0-2.01.327-2.683.98-.673.654-1.01 1.52-1.01 2.597v8.56c0 1.095.337 1.97 1.01 2.623.672.654 1.567.981 2.683.981z"/>
    <path fill="url(#paint63_linear)" d="M97.747 225c-1.7 0-3.054-.486-4.064-1.458-1.01-.971-1.514-2.27-1.514-3.895v-8.374c0-1.625.505-2.915 1.514-3.869 1.01-.972 2.364-1.458 4.064-1.458 1.718 0 3.091.486 4.118 1.458 1.027.971 1.541 2.261 1.541 3.869v8.374c0 1.625-.514 2.924-1.541 3.895-1.027.972-2.4 1.458-4.118 1.458zm0-1.643c1.134 0 2.046-.327 2.736-.981.691-.653 1.036-1.528 1.036-2.623v-8.56c0-1.077-.345-1.943-1.036-2.597-.672-.653-1.585-.98-2.736-.98-1.115 0-2.01.327-2.683.98-.672.654-1.009 1.52-1.009 2.597v8.56c0 1.095.336 1.97 1.01 2.623.672.654 1.567.981 2.682.981z"/>
    <path fill="url(#paint64_linear)" d="M112.767 225c-1.7 0-3.054-.486-4.064-1.458-1.009-.971-1.514-2.27-1.514-3.895v-8.374c0-1.625.505-2.915 1.514-3.869 1.01-.972 2.364-1.458 4.064-1.458 1.718 0 3.091.486 4.118 1.458 1.027.971 1.54 2.261 1.54 3.869v8.374c0 1.625-.513 2.924-1.54 3.895-1.027.972-2.4 1.458-4.118 1.458zm0-1.643c1.134 0 2.046-.327 2.736-.981.691-.653 1.036-1.528 1.036-2.623v-8.56c0-1.077-.345-1.943-1.036-2.597-.673-.653-1.585-.98-2.736-.98-1.115 0-2.01.327-2.683.98-.673.654-1.009 1.52-1.009 2.597v8.56c0 1.095.336 1.97 1.009 2.623.673.654 1.568.981 2.683.981z"/>
    <path fill="url(#paint65_linear)" d="M124.352 206.264c.106-.053.221-.079.345-.079h1.435c.177 0 .265.088.265.265v18.02c0 .177-.088.265-.265.265h-1.355c-.177 0-.266-.088-.266-.265v-16.139c0-.035-.017-.062-.053-.079-.017-.018-.044-.018-.079 0l-2.816 1.139-.106.027c-.107 0-.177-.071-.213-.212l-.133-1.007v-.053c0-.089.062-.177.186-.265l3.055-1.617z"/>
    <path fill="url(#paint66_linear)" d="M136.322 225c-1.7 0-3.055-.486-4.064-1.458-1.01-.971-1.514-2.27-1.514-3.895v-8.374c0-1.625.504-2.915 1.514-3.869 1.009-.972 2.364-1.458 4.064-1.458 1.718 0 3.09.486 4.117 1.458 1.027.971 1.541 2.261 1.541 3.869v8.374c0 1.625-.514 2.924-1.541 3.895-1.027.972-2.399 1.458-4.117 1.458zm0-1.643c1.133 0 2.045-.327 2.736-.981.691-.653 1.036-1.528 1.036-2.623v-8.56c0-1.077-.345-1.943-1.036-2.597-.673-.653-1.585-.98-2.736-.98-1.116 0-2.01.327-2.683.98-.673.654-1.009 1.52-1.009 2.597v8.56c0 1.095.336 1.97 1.009 2.623.673.654 1.567.981 2.683.981z"/>
    <path fill="url(#paint67_linear)" d="M151.342 225c-1.7 0-3.055-.486-4.064-1.458-1.01-.971-1.514-2.27-1.514-3.895v-8.374c0-1.625.504-2.915 1.514-3.869 1.009-.972 2.364-1.458 4.064-1.458 1.718 0 3.09.486 4.117 1.458 1.027.971 1.541 2.261 1.541 3.869v8.374c0 1.625-.514 2.924-1.541 3.895-1.027.972-2.399 1.458-4.117 1.458zm0-1.643c1.133 0 2.045-.327 2.736-.981.691-.653 1.036-1.528 1.036-2.623v-8.56c0-1.077-.345-1.943-1.036-2.597-.673-.653-1.585-.98-2.736-.98-1.116 0-2.01.327-2.683.98-.673.654-1.009 1.52-1.009 2.597v8.56c0 1.095.336 1.97 1.009 2.623.673.654 1.567.981 2.683.981z"/>
    <path fill="url(#paint68_linear)" d="M109.619 38.798l121.222 12.47-77.397 190.314-123.733-12.725 79.908-190.059z"/>
    <g filter="url(#filter0_d)">
        <path fill="#000" fill-opacity=".01" d="M244.739 157.02c.574-.299 1.258-.302 1.835-.007l36.69 18.778c1.452.743 1.452 2.818 0 3.561l-36.69 18.778c-.577.295-1.261.292-1.835-.007l-36.074-18.777c-1.435-.748-1.435-2.801 0-3.548l36.074-18.778z"/>
    </g>
    <path fill="#E5F0FF" d="M200 111.089c0-3.589 1.923-6.902 5.039-8.682l36-20.572c3.074-1.757 6.848-1.757 9.922 0l36 20.572c3.116 1.78 5.039 5.093 5.039 8.682v40.965c0 3.588-1.923 6.902-5.039 8.682l-36 20.572c-3.074 1.757-6.848 1.757-9.922 0l-36-20.572c-3.116-1.78-5.039-5.094-5.039-8.682v-40.965z"/>
    <path fill="#9DBFF9" d="M204.381 113.242c0-3.569 1.901-6.867 4.989-8.655l31.62-18.305c3.099-1.795 6.921-1.795 10.02 0l31.619 18.305c3.088 1.788 4.99 5.086 4.99 8.655v36.659c0 3.568-1.902 6.866-4.99 8.654l-31.619 18.306c-3.099 1.794-6.921 1.794-10.02 0l-31.62-18.306c-3.088-1.788-4.989-5.086-4.989-8.654v-36.659z"/>
    <path fill="#5B8DEF" d="M246 133.718c0-3.848 2.208-7.355 5.678-9.018l31.167-14.936c2.213-1.06 4.774.553 4.774 3.006v37.132c0 3.568-1.901 6.866-4.99 8.654l-31.626 18.31c-2.222 1.286-5.003-.317-5.003-2.885V133.718z"/>
    <path fill="#0063F7" d="M204.381 112.777c0-2.455 2.565-4.068 4.778-3.004l31.174 14.99c3.464 1.666 5.667 5.169 5.667 9.013v36.648s.036 3.166.773 4.231c.632.913 1.648 1.544 2.567 1.742 1.327.284 2.69-.152 2.69-.152l-1.011.59c-3.103 1.809-6.939 1.815-10.047.015l-31.602-18.295c-3.088-1.788-4.989-5.086-4.989-8.654v-37.124z"/>
    <path fill="url(#paint69_linear)" d="M152.5 42.5L205 113v39L72 226.5l80.5-184z"/>
    <defs>
        <linearGradient id="paint0_linear" x1="188.708" x2="-58.675" y1="-34.854" y2="46.599" gradientUnits="userSpaceOnUse">
            <stop stop-color="#0063F7"/>
            <stop offset="1" stop-color="#9DBFF9"/>
        </linearGradient>
        <linearGradient id="paint1_linear" x1="188.708" x2="-58.675" y1="-34.854" y2="46.599" gradientUnits="userSpaceOnUse">
            <stop stop-color="#0063F7"/>
            <stop offset="1" stop-color="#9DBFF9"/>
        </linearGradient>
        <linearGradient id="paint2_linear" x1="188.708" x2="-58.675" y1="-34.854" y2="46.599" gradientUnits="userSpaceOnUse">
            <stop stop-color="#0063F7"/>
            <stop offset="1" stop-color="#9DBFF9"/>
        </linearGradient>
        <linearGradient id="paint3_linear" x1="188.708" x2="-58.675" y1="-34.854" y2="46.599" gradientUnits="userSpaceOnUse">
            <stop stop-color="#0063F7"/>
            <stop offset="1" stop-color="#9DBFF9"/>
        </linearGradient>
        <linearGradient id="paint4_linear" x1="188.708" x2="-58.675" y1="-34.854" y2="46.599" gradientUnits="userSpaceOnUse">
            <stop stop-color="#0063F7"/>
            <stop offset="1" stop-color="#9DBFF9"/>
        </linearGradient>
        <linearGradient id="paint5_linear" x1="188.708" x2="-58.675" y1="-34.854" y2="46.599" gradientUnits="userSpaceOnUse">
            <stop stop-color="#0063F7"/>
            <stop offset="1" stop-color="#9DBFF9"/>
        </linearGradient>
        <linearGradient id="paint6_linear" x1="188.708" x2="-58.675" y1="-34.854" y2="46.599" gradientUnits="userSpaceOnUse">
            <stop stop-color="#0063F7"/>
            <stop offset="1" stop-color="#9DBFF9"/>
        </linearGradient>
        <linearGradient id="paint7_linear" x1="188.708" x2="-58.675" y1="-34.854" y2="46.599" gradientUnits="userSpaceOnUse">
            <stop stop-color="#0063F7"/>
            <stop offset="1" stop-color="#9DBFF9"/>
        </linearGradient>
        <linearGradient id="paint8_linear" x1="188.708" x2="-58.675" y1="-34.854" y2="46.599" gradientUnits="userSpaceOnUse">
            <stop stop-color="#0063F7"/>
            <stop offset="1" stop-color="#9DBFF9"/>
        </linearGradient>
        <linearGradient id="paint9_linear" x1="188.708" x2="-58.675" y1="-34.854" y2="46.599" gradientUnits="userSpaceOnUse">
            <stop stop-color="#0063F7"/>
            <stop offset="1" stop-color="#9DBFF9"/>
        </linearGradient>
        <linearGradient id="paint10_linear" x1="188.708" x2="-58.675" y1="-34.854" y2="46.599" gradientUnits="userSpaceOnUse">
            <stop stop-color="#0063F7"/>
            <stop offset="1" stop-color="#9DBFF9"/>
        </linearGradient>
        <linearGradient id="paint11_linear" x1="188.708" x2="-58.675" y1="-34.854" y2="46.599" gradientUnits="userSpaceOnUse">
            <stop stop-color="#0063F7"/>
            <stop offset="1" stop-color="#9DBFF9"/>
        </linearGradient>
        <linearGradient id="paint12_linear" x1="188.708" x2="-58.675" y1="-34.854" y2="46.599" gradientUnits="userSpaceOnUse">
            <stop stop-color="#0063F7"/>
            <stop offset="1" stop-color="#9DBFF9"/>
        </linearGradient>
        <linearGradient id="paint13_linear" x1="188.708" x2="-58.675" y1="-34.854" y2="46.599" gradientUnits="userSpaceOnUse">
            <stop stop-color="#0063F7"/>
            <stop offset="1" stop-color="#9DBFF9"/>
        </linearGradient>
        <linearGradient id="paint14_linear" x1="188.708" x2="-58.675" y1="-34.854" y2="46.599" gradientUnits="userSpaceOnUse">
            <stop stop-color="#0063F7"/>
            <stop offset="1" stop-color="#9DBFF9"/>
        </linearGradient>
        <linearGradient id="paint15_linear" x1="188.708" x2="-58.675" y1="-34.854" y2="46.599" gradientUnits="userSpaceOnUse">
            <stop stop-color="#0063F7"/>
            <stop offset="1" stop-color="#9DBFF9"/>
        </linearGradient>
        <linearGradient id="paint16_linear" x1="188.708" x2="-58.675" y1="-34.854" y2="46.599" gradientUnits="userSpaceOnUse">
            <stop stop-color="#0063F7"/>
            <stop offset="1" stop-color="#9DBFF9"/>
        </linearGradient>
        <linearGradient id="paint17_linear" x1="188.708" x2="-58.675" y1="-34.854" y2="46.599" gradientUnits="userSpaceOnUse">
            <stop stop-color="#0063F7"/>
            <stop offset="1" stop-color="#9DBFF9"/>
        </linearGradient>
        <linearGradient id="paint18_linear" x1="188.708" x2="-58.675" y1="-34.854" y2="46.599" gradientUnits="userSpaceOnUse">
            <stop stop-color="#0063F7"/>
            <stop offset="1" stop-color="#9DBFF9"/>
        </linearGradient>
        <linearGradient id="paint19_linear" x1="188.708" x2="-58.675" y1="-34.854" y2="46.599" gradientUnits="userSpaceOnUse">
            <stop stop-color="#0063F7"/>
            <stop offset="1" stop-color="#9DBFF9"/>
        </linearGradient>
        <linearGradient id="paint20_linear" x1="188.708" x2="-58.675" y1="-34.854" y2="46.599" gradientUnits="userSpaceOnUse">
            <stop stop-color="#0063F7"/>
            <stop offset="1" stop-color="#9DBFF9"/>
        </linearGradient>
        <linearGradient id="paint21_linear" x1="188.708" x2="-58.675" y1="-34.854" y2="46.599" gradientUnits="userSpaceOnUse">
            <stop stop-color="#0063F7"/>
            <stop offset="1" stop-color="#9DBFF9"/>
        </linearGradient>
        <linearGradient id="paint22_linear" x1="188.708" x2="-58.675" y1="-34.854" y2="46.599" gradientUnits="userSpaceOnUse">
            <stop stop-color="#0063F7"/>
            <stop offset="1" stop-color="#9DBFF9"/>
        </linearGradient>
        <linearGradient id="paint23_linear" x1="188.708" x2="-58.675" y1="-34.854" y2="46.599" gradientUnits="userSpaceOnUse">
            <stop stop-color="#0063F7"/>
            <stop offset="1" stop-color="#9DBFF9"/>
        </linearGradient>
        <linearGradient id="paint24_linear" x1="188.708" x2="-58.675" y1="-34.854" y2="46.599" gradientUnits="userSpaceOnUse">
            <stop stop-color="#0063F7"/>
            <stop offset="1" stop-color="#9DBFF9"/>
        </linearGradient>
        <linearGradient id="paint25_linear" x1="188.708" x2="-58.675" y1="-34.854" y2="46.599" gradientUnits="userSpaceOnUse">
            <stop stop-color="#0063F7"/>
            <stop offset="1" stop-color="#9DBFF9"/>
        </linearGradient>
        <linearGradient id="paint26_linear" x1="188.708" x2="-58.675" y1="-34.854" y2="46.599" gradientUnits="userSpaceOnUse">
            <stop stop-color="#0063F7"/>
            <stop offset="1" stop-color="#9DBFF9"/>
        </linearGradient>
        <linearGradient id="paint27_linear" x1="188.708" x2="-58.675" y1="-34.854" y2="46.599" gradientUnits="userSpaceOnUse">
            <stop stop-color="#0063F7"/>
            <stop offset="1" stop-color="#9DBFF9"/>
        </linearGradient>
        <linearGradient id="paint28_linear" x1="188.708" x2="-58.675" y1="-34.854" y2="46.599" gradientUnits="userSpaceOnUse">
            <stop stop-color="#0063F7"/>
            <stop offset="1" stop-color="#9DBFF9"/>
        </linearGradient>
        <linearGradient id="paint29_linear" x1="188.708" x2="-58.675" y1="-34.854" y2="46.599" gradientUnits="userSpaceOnUse">
            <stop stop-color="#0063F7"/>
            <stop offset="1" stop-color="#9DBFF9"/>
        </linearGradient>
        <linearGradient id="paint30_linear" x1="188.708" x2="-58.675" y1="-34.854" y2="46.599" gradientUnits="userSpaceOnUse">
            <stop stop-color="#0063F7"/>
            <stop offset="1" stop-color="#9DBFF9"/>
        </linearGradient>
        <linearGradient id="paint31_linear" x1="188.708" x2="-58.675" y1="-34.854" y2="46.599" gradientUnits="userSpaceOnUse">
            <stop stop-color="#0063F7"/>
            <stop offset="1" stop-color="#9DBFF9"/>
        </linearGradient>
        <linearGradient id="paint32_linear" x1="188.708" x2="-58.675" y1="-34.854" y2="46.599" gradientUnits="userSpaceOnUse">
            <stop stop-color="#0063F7"/>
            <stop offset="1" stop-color="#9DBFF9"/>
        </linearGradient>
        <linearGradient id="paint33_linear" x1="188.708" x2="-58.675" y1="-34.854" y2="46.599" gradientUnits="userSpaceOnUse">
            <stop stop-color="#0063F7"/>
            <stop offset="1" stop-color="#9DBFF9"/>
        </linearGradient>
        <linearGradient id="paint34_linear" x1="188.708" x2="-58.675" y1="-34.854" y2="46.599" gradientUnits="userSpaceOnUse">
            <stop stop-color="#0063F7"/>
            <stop offset="1" stop-color="#9DBFF9"/>
        </linearGradient>
        <linearGradient id="paint35_linear" x1="188.708" x2="-58.675" y1="-34.854" y2="46.599" gradientUnits="userSpaceOnUse">
            <stop stop-color="#0063F7"/>
            <stop offset="1" stop-color="#9DBFF9"/>
        </linearGradient>
        <linearGradient id="paint36_linear" x1="188.708" x2="-58.675" y1="-34.854" y2="46.599" gradientUnits="userSpaceOnUse">
            <stop stop-color="#0063F7"/>
            <stop offset="1" stop-color="#9DBFF9"/>
        </linearGradient>
        <linearGradient id="paint37_linear" x1="188.708" x2="-58.675" y1="-34.854" y2="46.599" gradientUnits="userSpaceOnUse">
            <stop stop-color="#0063F7"/>
            <stop offset="1" stop-color="#9DBFF9"/>
        </linearGradient>
        <linearGradient id="paint38_linear" x1="188.708" x2="-58.675" y1="-34.854" y2="46.599" gradientUnits="userSpaceOnUse">
            <stop stop-color="#0063F7"/>
            <stop offset="1" stop-color="#9DBFF9"/>
        </linearGradient>
        <linearGradient id="paint39_linear" x1="188.708" x2="-58.675" y1="-34.854" y2="46.599" gradientUnits="userSpaceOnUse">
            <stop stop-color="#0063F7"/>
            <stop offset="1" stop-color="#9DBFF9"/>
        </linearGradient>
        <linearGradient id="paint40_linear" x1="188.708" x2="-58.675" y1="-34.854" y2="46.599" gradientUnits="userSpaceOnUse">
            <stop stop-color="#0063F7"/>
            <stop offset="1" stop-color="#9DBFF9"/>
        </linearGradient>
        <linearGradient id="paint41_linear" x1="188.708" x2="-58.675" y1="-34.854" y2="46.599" gradientUnits="userSpaceOnUse">
            <stop stop-color="#0063F7"/>
            <stop offset="1" stop-color="#9DBFF9"/>
        </linearGradient>
        <linearGradient id="paint42_linear" x1="188.708" x2="-58.675" y1="-34.854" y2="46.599" gradientUnits="userSpaceOnUse">
            <stop stop-color="#0063F7"/>
            <stop offset="1" stop-color="#9DBFF9"/>
        </linearGradient>
        <linearGradient id="paint43_linear" x1="188.708" x2="-58.675" y1="-34.854" y2="46.599" gradientUnits="userSpaceOnUse">
            <stop stop-color="#0063F7"/>
            <stop offset="1" stop-color="#9DBFF9"/>
        </linearGradient>
        <linearGradient id="paint44_linear" x1="188.708" x2="-58.675" y1="-34.854" y2="46.599" gradientUnits="userSpaceOnUse">
            <stop stop-color="#0063F7"/>
            <stop offset="1" stop-color="#9DBFF9"/>
        </linearGradient>
        <linearGradient id="paint45_linear" x1="188.708" x2="-58.675" y1="-34.854" y2="46.599" gradientUnits="userSpaceOnUse">
            <stop stop-color="#0063F7"/>
            <stop offset="1" stop-color="#9DBFF9"/>
        </linearGradient>
        <linearGradient id="paint46_linear" x1="188.708" x2="-58.675" y1="-34.854" y2="46.599" gradientUnits="userSpaceOnUse">
            <stop stop-color="#0063F7"/>
            <stop offset="1" stop-color="#9DBFF9"/>
        </linearGradient>
        <linearGradient id="paint47_linear" x1="188.708" x2="-58.675" y1="-34.854" y2="46.599" gradientUnits="userSpaceOnUse">
            <stop stop-color="#0063F7"/>
            <stop offset="1" stop-color="#9DBFF9"/>
        </linearGradient>
        <linearGradient id="paint48_linear" x1="188.708" x2="-58.675" y1="-34.854" y2="46.599" gradientUnits="userSpaceOnUse">
            <stop stop-color="#0063F7"/>
            <stop offset="1" stop-color="#9DBFF9"/>
        </linearGradient>
        <linearGradient id="paint49_linear" x1="188.708" x2="-58.675" y1="-34.854" y2="46.599" gradientUnits="userSpaceOnUse">
            <stop stop-color="#0063F7"/>
            <stop offset="1" stop-color="#9DBFF9"/>
        </linearGradient>
        <linearGradient id="paint50_linear" x1="188.708" x2="-58.675" y1="-34.854" y2="46.599" gradientUnits="userSpaceOnUse">
            <stop stop-color="#0063F7"/>
            <stop offset="1" stop-color="#9DBFF9"/>
        </linearGradient>
        <linearGradient id="paint51_linear" x1="188.708" x2="-58.675" y1="-34.854" y2="46.599" gradientUnits="userSpaceOnUse">
            <stop stop-color="#0063F7"/>
            <stop offset="1" stop-color="#9DBFF9"/>
        </linearGradient>
        <linearGradient id="paint52_linear" x1="188.708" x2="-58.675" y1="-34.854" y2="46.599" gradientUnits="userSpaceOnUse">
            <stop stop-color="#0063F7"/>
            <stop offset="1" stop-color="#9DBFF9"/>
        </linearGradient>
        <linearGradient id="paint53_linear" x1="188.708" x2="-58.675" y1="-34.854" y2="46.599" gradientUnits="userSpaceOnUse">
            <stop stop-color="#0063F7"/>
            <stop offset="1" stop-color="#9DBFF9"/>
        </linearGradient>
        <linearGradient id="paint54_linear" x1="188.708" x2="-58.675" y1="-34.854" y2="46.599" gradientUnits="userSpaceOnUse">
            <stop stop-color="#0063F7"/>
            <stop offset="1" stop-color="#9DBFF9"/>
        </linearGradient>
        <linearGradient id="paint55_linear" x1="188.708" x2="-58.675" y1="-34.854" y2="46.599" gradientUnits="userSpaceOnUse">
            <stop stop-color="#0063F7"/>
            <stop offset="1" stop-color="#9DBFF9"/>
        </linearGradient>
        <linearGradient id="paint56_linear" x1="188.708" x2="-58.675" y1="-34.854" y2="46.599" gradientUnits="userSpaceOnUse">
            <stop stop-color="#0063F7"/>
            <stop offset="1" stop-color="#9DBFF9"/>
        </linearGradient>
        <linearGradient id="paint57_linear" x1="188.708" x2="-58.675" y1="-34.854" y2="46.599" gradientUnits="userSpaceOnUse">
            <stop stop-color="#0063F7"/>
            <stop offset="1" stop-color="#9DBFF9"/>
        </linearGradient>
        <linearGradient id="paint58_linear" x1="188.708" x2="-58.675" y1="-34.854" y2="46.599" gradientUnits="userSpaceOnUse">
            <stop stop-color="#0063F7"/>
            <stop offset="1" stop-color="#9DBFF9"/>
        </linearGradient>
        <linearGradient id="paint59_linear" x1="188.708" x2="-58.675" y1="-34.854" y2="46.599" gradientUnits="userSpaceOnUse">
            <stop stop-color="#0063F7"/>
            <stop offset="1" stop-color="#9DBFF9"/>
        </linearGradient>
        <linearGradient id="paint60_linear" x1="188.708" x2="-58.675" y1="-34.854" y2="46.599" gradientUnits="userSpaceOnUse">
            <stop stop-color="#0063F7"/>
            <stop offset="1" stop-color="#9DBFF9"/>
        </linearGradient>
        <linearGradient id="paint61_linear" x1="188.708" x2="-58.675" y1="-34.854" y2="46.599" gradientUnits="userSpaceOnUse">
            <stop stop-color="#0063F7"/>
            <stop offset="1" stop-color="#9DBFF9"/>
        </linearGradient>
        <linearGradient id="paint62_linear" x1="188.708" x2="-58.675" y1="-34.854" y2="46.599" gradientUnits="userSpaceOnUse">
            <stop stop-color="#0063F7"/>
            <stop offset="1" stop-color="#9DBFF9"/>
        </linearGradient>
        <linearGradient id="paint63_linear" x1="188.708" x2="-58.675" y1="-34.854" y2="46.599" gradientUnits="userSpaceOnUse">
            <stop stop-color="#0063F7"/>
            <stop offset="1" stop-color="#9DBFF9"/>
        </linearGradient>
        <linearGradient id="paint64_linear" x1="188.708" x2="-58.675" y1="-34.854" y2="46.599" gradientUnits="userSpaceOnUse">
            <stop stop-color="#0063F7"/>
            <stop offset="1" stop-color="#9DBFF9"/>
        </linearGradient>
        <linearGradient id="paint65_linear" x1="188.708" x2="-58.675" y1="-34.854" y2="46.599" gradientUnits="userSpaceOnUse">
            <stop stop-color="#0063F7"/>
            <stop offset="1" stop-color="#9DBFF9"/>
        </linearGradient>
        <linearGradient id="paint66_linear" x1="188.708" x2="-58.675" y1="-34.854" y2="46.599" gradientUnits="userSpaceOnUse">
            <stop stop-color="#0063F7"/>
            <stop offset="1" stop-color="#9DBFF9"/>
        </linearGradient>
        <linearGradient id="paint67_linear" x1="188.708" x2="-58.675" y1="-34.854" y2="46.599" gradientUnits="userSpaceOnUse">
            <stop stop-color="#0063F7"/>
            <stop offset="1" stop-color="#9DBFF9"/>
        </linearGradient>
        <linearGradient id="paint68_linear" x1="96.501" x2="65.365" y1="159.509" y2="146.042" gradientUnits="userSpaceOnUse">
            <stop stop-color="#fff"/>
            <stop offset="1" stop-color="#fff" stop-opacity="0"/>
        </linearGradient>
        <linearGradient id="paint69_linear" x1="195.5" x2="125" y1="133" y2="101.5" gradientUnits="userSpaceOnUse">
            <stop stop-color="#0063F7"/>
            <stop offset="1" stop-color="#fff" stop-opacity="0"/>
        </linearGradient>
        <filter id="filter0_d" width="108.764" height="73.556" x="191.589" y="140.793" color-interpolation-filters="sRGB" filterUnits="userSpaceOnUse">
            <feFlood flood-opacity="0" result="BackgroundImageFix"/>
            <feColorMatrix in="SourceAlpha" values="0 0 0 0 0 0 0 0 0 0 0 0 0 0 0 0 0 0 127 0"/>
            <feOffset/>
            <feGaussianBlur stdDeviation="8"/>
            <feColorMatrix values="0 0 0 0 0 0 0 0 0 0.34902 0 0 0 0 0.870588 0 0 0 0.4 0"/>
            <feBlend in2="BackgroundImageFix" result="effect1_dropShadow"/>
            <feBlend in="SourceGraphic" in2="effect1_dropShadow" result="shape"/>
        </filter>
    </defs>
</svg>
