<svg xmlns="http://www.w3.org/2000/svg" width="326" height="241" fill="none" viewBox="0 0 326 241">
    <g filter="url(#filter0_d)">
        <path fill="url(#paint0_linear)" d="M247.239 99.865c.021-.726.103-1.44.103-2.172 0-37.384-29.11-67.693-65.015-67.693-26.475 0-49.211 16.5-59.351 40.145-5.409-4.505-12.254-7.215-19.721-7.215-17.206 0-31.174 14.315-31.592 32.13C53.235 101.84 40 120.089 40 141.604c0 25.423 18.453 46.343 42.173 49.075V191h158.142v-.088c.585.025 1.162.088 1.758.088C266.336 191 286 170.523 286 145.26c0-23.433-16.938-42.726-38.761-45.395z"/>
    </g>
    <defs>
        <linearGradient id="paint0_linear" x1="335.683" x2="14.19" y1="-40.141" y2="146.323" gradientUnits="userSpaceOnUse">
            <stop stop-color="#0063F7"/>
            <stop offset="1" stop-color="#9DBFF9"/>
        </linearGradient>
        <filter id="filter0_d" width="326" height="241" x="0" y="0" color-interpolation-filters="sRGB" filterUnits="userSpaceOnUse">
            <feFlood flood-opacity="0" result="BackgroundImageFix"/>
            <feColorMatrix in="SourceAlpha" values="0 0 0 0 0 0 0 0 0 0 0 0 0 0 0 0 0 0 127 0"/>
            <feOffset dy="10"/>
            <feGaussianBlur stdDeviation="20"/>
            <feColorMatrix values="0 0 0 0 0.782 0 0 0 0 0.786533 0 0 0 0 0.85 0 0 0 0.5 0"/>
            <feBlend in2="BackgroundImageFix" result="effect1_dropShadow"/>
            <feBlend in="SourceGraphic" in2="effect1_dropShadow" result="shape"/>
        </filter>
    </defs>
</svg>
