<svg width="609" height="631" viewBox="0 0 609 631" fill="none" xmlns="http://www.w3.org/2000/svg">
<g filter="url(#filter0_d)">
<path d="M298.3 312.22C301.399 310.606 305.088 310.593 308.198 312.185L453.126 386.391C460.958 390.401 460.958 401.599 453.126 405.609L308.198 479.815C305.088 481.407 301.399 481.394 298.3 479.78L155.808 405.575C148.064 401.542 148.064 390.458 155.808 386.425L298.3 312.22Z" fill="black" fill-opacity="0.01"/>
</g>
<path d="M116 130.95C116 111.6 126.356 93.7341 143.137 84.1339L277.779 7.10442C294.337 -2.36814 314.663 -2.36814 331.221 7.10441L465.863 84.1339C482.644 93.7341 493 111.6 493 130.95V284.05C493 303.4 482.644 321.266 465.863 330.866L331.221 407.896C314.663 417.368 294.337 417.368 277.779 407.896L143.137 330.866C126.356 321.266 116 303.4 116 284.05V130.95Z" fill="#E5F0FF"/>
<path d="M134 139.671C134 120.412 144.238 102.612 160.865 92.9631L277.523 25.263C294.21 15.579 314.79 15.579 331.477 25.263L448.135 92.9631C464.762 102.612 475 120.412 475 139.671V275.329C475 294.588 464.762 312.388 448.135 322.037L331.477 389.737C314.79 399.421 294.21 399.421 277.523 389.737L160.865 322.037C144.238 312.388 134 294.588 134 275.329V139.671Z" fill="#9DBFF9"/>
<path d="M304 224.292C304 203.531 315.854 184.611 334.484 175.639L448.372 120.788C460.25 115.067 474 123.769 474 137.006V275.163C474 294.415 463.792 312.209 447.214 321.855L330.861 389.553C318.931 396.494 304 387.843 304 373.989L304 306.269L304 224.292Z" fill="#5B8DEF"/>
<path d="M134 136.979C134 123.751 147.796 115.064 159.698 120.796L273.846 175.769C292.476 184.742 304.324 203.614 304.324 224.319V366.437C304.324 366.437 304.47 379.411 307.488 383.778C310.074 387.52 314.231 390.108 317.992 390.916C323.424 392.083 329 390.296 329 390.296C313.743 399.207 294.887 399.236 279.602 390.374L160.837 321.507C144.227 311.876 134 294.109 134 274.886V136.979Z" fill="#0063F7"/>
<defs>
<filter id="filter0_d" x="0" y="161" width="609" height="470" filterUnits="userSpaceOnUse" color-interpolation-filters="sRGB">
<feFlood flood-opacity="0" result="BackgroundImageFix"/>
<feColorMatrix in="SourceAlpha" type="matrix" values="0 0 0 0 0 0 0 0 0 0 0 0 0 0 0 0 0 0 127 0" result="hardAlpha"/>
<feOffset/>
<feGaussianBlur stdDeviation="75"/>
<feColorMatrix type="matrix" values="0 0 0 0 0 0 0 0 0 0.34902 0 0 0 0 0.870588 0 0 0 0.3 0"/>
<feBlend mode="normal" in2="BackgroundImageFix" result="effect1_dropShadow"/>
<feBlend mode="normal" in="SourceGraphic" in2="effect1_dropShadow" result="shape"/>
</filter>
</defs>
</svg>
