<svg xmlns="http://www.w3.org/2000/svg" width="30" height="30" fill="none" viewBox="0 0 30 30">
    <path fill="#fff" d="M22.609.006L18.719 0c-4.371 0-7.196 2.898-7.196 7.383v3.404H7.612c-.338 0-.612.274-.612.612v4.932c0 .338.274.612.612.612h3.911v12.445c0 .338.274.612.612.612h5.103c.338 0 .612-.274.612-.612V16.943h4.574c.338 0 .611-.274.611-.612l.002-4.932c0-.162-.064-.318-.179-.432-.114-.115-.27-.18-.433-.18H17.85V7.901c0-1.387.33-2.09 2.137-2.09l2.621-.002c.338 0 .611-.274.611-.611V.618c0-.337-.273-.611-.61-.612z"/>
</svg>
