<svg width="115" height="90" viewBox="0 0 115 90" fill="none" xmlns="http://www.w3.org/2000/svg">
<path fill-rule="evenodd" clip-rule="evenodd" d="M11.9765 64.094L0 50.6997L36.6593 37.3558L42.3654 53.0335L11.9765 64.094Z" fill="#F89920"/>
<path fill-rule="evenodd" clip-rule="evenodd" d="M11.8875 63.8527L11.3232 81.8126L47.9826 68.4687L42.2765 52.7922L11.8875 63.8527Z" fill="#FFBE22"/>
<path fill-rule="evenodd" clip-rule="evenodd" d="M113.764 27.0745C118.995 42.2287 102.141 62.1419 75.9237 71.6849C49.7042 81.2267 23.9937 76.8063 18.2588 61.8345L113.764 27.0745Z" fill="#F0670A"/>
<path fill-rule="evenodd" clip-rule="evenodd" d="M113.764 27.0733C108.067 12.0631 82.3287 7.62474 56.0827 17.1761C29.8356 26.7287 12.973 46.6743 18.2577 61.8358L113.764 27.0733Z" fill="#FFD00E"/>
<path fill-rule="evenodd" clip-rule="evenodd" d="M113.761 27.0754C117.022 37.2151 98.7235 53.0068 72.5868 62.5186C46.4489 72.0328 22.2811 71.6978 18.2617 61.8343L113.761 27.0754Z" fill="#F89920"/>
<path fill-rule="evenodd" clip-rule="evenodd" d="M113.761 27.0744C109.802 17.164 85.5971 16.8122 59.4172 26.342C33.2373 35.8706 14.9221 51.6972 18.2583 61.8344L113.761 27.0744Z" fill="#FFBE22"/>
<path d="M69.7034 13.3199C67.2087 4.69414 64.3707 -0.0899586 61.1437 0.00128149C54.9045 0.17896 52.8072 19.9613 54.8265 45.3104C56.8674 70.9285 62.1605 90.1729 68.7598 89.9988C72.6951 89.8956 74.9113 83.6 75.6893 72.6692C75.705 72.4459 75.4564 72.6008 75.4707 72.3727C75.4707 72.3727 75.4384 71.9741 75.2907 71.9645L74.4539 71.9105C73.7684 82.5231 71.6915 88.6386 68.7262 88.7167C63.3022 88.8583 58.0655 69.8215 56.1062 45.2095C54.177 21.0009 56.2539 1.42389 61.1809 1.28343C63.5135 1.2174 66.127 5.62334 68.4393 13.5672C68.4393 13.5672 69.7046 13.3235 69.7034 13.3199L69.7034 13.3199Z" fill="#F0670A"/>
<path d="M38.7866 7.16488C33.4719 10.4387 41.5466 28.6183 55.9697 49.5627C70.5453 70.728 84.7524 84.7478 90.3805 81.2975C93.5258 79.3694 92.6435 73.5156 88.5917 64.6798C88.5588 64.6 88.5101 64.5277 88.4486 64.4673C88.387 64.4068 88.3139 64.3593 88.2337 64.3278C88.1534 64.2962 88.0675 64.2812 87.9813 64.2836C87.8951 64.286 87.8102 64.3058 87.7318 64.3417C87.6534 64.3777 87.583 64.4291 87.525 64.4929C87.4669 64.5567 87.4223 64.6316 87.3939 64.713C87.3654 64.7945 87.3537 64.8808 87.3594 64.9669C87.3652 65.053 87.3882 65.137 87.4272 65.214C91.192 73.4292 92.0012 78.7992 89.7094 80.2038C85.0837 83.0382 71.0316 69.1709 57.0262 48.834C43.2526 28.8344 35.2618 10.8433 39.4601 8.25736C41.6883 6.88396 46.9898 10.1974 53.9949 17.3538C54.0729 17.433 54.5207 17.8976 54.6204 17.9276C54.8377 17.9936 54.7284 17.5338 54.9025 17.3634C54.9628 17.3045 55.0109 17.2342 55.044 17.1567C55.0772 17.0792 55.0947 16.9959 55.0956 16.9116C55.0965 16.8273 55.0807 16.7436 55.0493 16.6654C55.0178 16.5872 54.9712 16.5159 54.9122 16.4558C47.428 8.81081 41.8119 5.30046 38.7866 7.16368V7.16488Z" fill="#F0670A"/>
</svg>
