<svg width="104" height="90" viewBox="0 0 104 90" fill="none" xmlns="http://www.w3.org/2000/svg">
<path d="M91.8295 22.5366H8.75375C6.77985 22.5366 5.17969 24.1368 5.17969 26.1107V86.426C5.17969 88.3999 6.77985 90 8.75375 90H91.8295C93.8034 90 95.4035 88.3999 95.4035 86.426V26.1107C95.4035 24.1368 93.8034 22.5366 91.8295 22.5366Z" fill="#4989F5"/>
<path d="M90.7871 22.0298H9.69708C7.18516 22.0298 5.23047 41.4701 5.23047 43.982L49.6379 90H90.7871C91.9974 89.9967 93.1572 89.5144 94.0131 88.6586C94.8689 87.8028 95.3512 86.643 95.3545 85.4326V26.5962C95.3509 25.3861 94.8685 24.2265 94.0127 23.3709C93.1569 22.5153 91.9973 22.0331 90.7871 22.0298Z" fill="url(#paint0_linear)"/>
<path d="M25.7812 33.8344H51.5595V0.000976562H29.6412L25.7812 33.8344Z" fill="#3C4BA6"/>
<path d="M77.3378 33.8344H51.5596V0.000976562H73.4779L77.3378 33.8344Z" fill="#7BABF7"/>
<path d="M95.4033 6.41455L95.4353 6.52987C95.4276 6.48917 95.412 6.45138 95.4033 6.41455Z" fill="#7BABF7"/>
<path d="M95.4356 6.52887L95.4036 6.41355C95.0069 4.59709 94.0013 2.97078 92.5534 1.80428C91.1056 0.637781 89.3026 0.00116669 87.4434 0H73.4775L77.3346 33.8344H103.113L95.4356 6.52887Z" fill="#3F51B5"/>
<path d="M7.71557 6.41455L7.68359 6.52987C7.69135 6.48917 7.70685 6.45138 7.71557 6.41455Z" fill="#7BABF7"/>
<path d="M7.68211 6.52887L7.71409 6.41355C8.11079 4.59709 9.11641 2.97078 10.5642 1.80428C12.012 0.637781 13.8151 0.00116669 15.6743 0H29.6411L25.7782 33.8344H0L7.68211 6.52887Z" fill="#7BABF7"/>
<path fill-rule="evenodd" clip-rule="evenodd" d="M25.8252 33.8257C25.8252 37.2422 24.468 40.5187 22.0522 42.9345C19.6364 45.3503 16.3599 46.7075 12.9434 46.7075C9.5269 46.7075 6.25035 45.3503 3.83453 42.9345C1.41871 40.5187 0.0615234 37.2422 0.0615234 33.8257H25.8252Z" fill="#709BE0"/>
<path fill-rule="evenodd" clip-rule="evenodd" d="M51.5889 33.8257C51.5889 37.2422 50.2317 40.5187 47.8159 42.9345C45.4001 45.3503 42.1235 46.7075 38.7071 46.7075C35.2906 46.7075 32.014 45.3503 29.5982 42.9345C27.1824 40.5187 25.8252 37.2422 25.8252 33.8257H51.5889Z" fill="#3C4BA6"/>
<path fill-rule="evenodd" clip-rule="evenodd" d="M77.3526 33.8257C77.3526 37.2422 75.9954 40.5187 73.5796 42.9345C71.1638 45.3503 67.8872 46.7075 64.4707 46.7075C61.0542 46.7075 57.7777 45.3503 55.3619 42.9345C52.9461 40.5187 51.5889 37.2422 51.5889 33.8257H77.3526Z" fill="#709BE0"/>
<path fill-rule="evenodd" clip-rule="evenodd" d="M103.113 33.8257C103.113 37.2422 101.756 40.5187 99.3403 42.9345C96.9245 45.3503 93.6479 46.7075 90.2315 46.7075C86.815 46.7075 83.5384 45.3503 81.1226 42.9345C78.7068 40.5187 77.3496 37.2422 77.3496 33.8257H103.113Z" fill="#3C4BA6"/>
<path d="M90.2314 68.7262C90.1859 68.1127 90.1103 67.5526 90.0027 66.8374H75.9506C75.9506 68.8027 75.9506 70.9474 75.9429 72.9137H84.0834C83.9105 73.8301 83.5582 74.7032 83.0468 75.4831C82.5354 76.2629 81.8749 76.934 81.1034 77.4578C81.1034 77.4578 81.1034 77.4239 81.0976 77.4229C80.1012 78.0772 78.9787 78.5152 77.8026 78.7089C76.6235 78.9247 75.4145 78.9194 74.2373 78.6934C73.0419 78.446 71.9101 77.9555 70.9123 77.2524C69.4394 76.2079 68.3033 74.7563 67.6435 73.0755C67.5931 72.9447 67.5465 72.8129 67.4991 72.6792V72.6646L67.5117 72.6549C66.8712 70.7752 66.8695 68.7366 67.5068 66.8558C67.9557 65.5364 68.6945 64.3343 69.6689 63.3379C70.7901 62.1781 72.2091 61.3495 73.7702 60.943C75.3314 60.5365 76.9743 60.5677 78.5188 61.0334C79.7261 61.4037 80.8294 62.0531 81.7391 62.929L84.4856 60.1825C84.9701 59.6931 85.4731 59.2192 85.9392 58.7134C84.5466 57.4144 82.912 56.4021 81.1286 55.7343C77.8829 54.5574 74.3322 54.5263 71.0663 55.6461C70.9526 55.6849 70.8396 55.7253 70.7272 55.7673C67.2038 57.0918 64.3053 59.6895 62.6041 63.0472C62.0034 64.2357 61.5659 65.4998 61.3036 66.8054C60.554 70.5303 61.251 74.4009 63.253 77.6303C65.2549 80.8597 68.4114 83.2057 72.081 84.1912C74.5706 84.8579 77.2173 84.8414 79.7263 84.2716C82.0059 83.7569 84.1138 82.6616 85.8452 81.092C87.6516 79.4299 88.9464 77.2156 89.6247 74.8635C90.1919 72.8704 90.3974 70.7918 90.2314 68.7262Z" fill="white"/>
<defs>
<linearGradient id="paint0_linear" x1="5.23047" y1="56.0144" x2="95.3535" y2="56.0144" gradientUnits="userSpaceOnUse">
<stop offset="0.03" stop-color="#4079D8"/>
<stop offset="1" stop-color="#4989F5"/>
</linearGradient>
</defs>
</svg>
