<svg width="70" height="100" viewBox="0 0 70 100" fill="none" xmlns="http://www.w3.org/2000/svg">
<path d="M19.1689 74.0801C22.2513 77.9388 25.3907 82.7906 27.0335 85.7213C29.0343 89.5311 29.8638 92.1035 31.3522 96.7112C32.2224 99.2348 33.052 100 34.7924 100C36.6955 100 37.5658 98.7138 38.2327 96.7112C39.6234 92.3885 40.697 89.0996 42.3968 85.9655C48.952 73.5917 59.6387 64.7997 65.6571 52.7515C65.6571 52.7515 69.6179 45.3924 69.6179 35.0863C69.6179 25.4803 65.7141 18.8049 65.7141 18.8049L19.1933 74.1615L19.1689 74.0801Z" fill="#34A853"/>
<path d="M3.39092 51.449C7.14023 59.9967 14.2891 67.4862 19.169 74.0801L45.0319 43.3898C45.0319 43.3898 41.3802 48.1765 34.7843 48.1765C27.4321 48.1765 21.4462 42.3152 21.4462 34.9072C21.4462 29.8111 24.4798 26.2781 24.4798 26.2781C5.44857 29.111 6.50586 33.7268 3.33398 51.4328L3.39092 51.449Z" fill="#FBBC04"/>
<path d="M45.3576 1.60339C53.9786 4.37936 61.2983 10.2325 65.6901 18.7802L45.0323 43.4465C45.0323 43.4465 48.0659 39.8971 48.0659 34.8173C48.0659 27.2547 41.6896 21.548 34.8091 21.548C28.2783 21.548 24.5615 26.2778 24.5615 26.2778C26.1475 22.6633 42.5355 2.83264 45.382 1.61153L45.3576 1.60339Z" fill="#4285F4"/>
<path d="M8.1084 12.4552C13.2484 6.33344 22.2598 0 34.7033 0C40.7135 0 45.2762 1.59557 45.2762 1.59557L24.537 26.2618C23.1382 25.5023 9.49101 14.8649 8.1084 12.4227V12.4552Z" fill="#1A73E8"/>
<path d="M3.39146 51.449C3.39146 51.449 0 44.7085 0 35.0049C0 25.8059 3.59478 17.7466 8.13299 12.5366L24.5616 26.3757L3.41586 51.449H3.39146Z" fill="#EA4335"/>
</svg>
