<svg width="101" height="90" viewBox="0 0 101 90" fill="none" xmlns="http://www.w3.org/2000/svg">
<path d="M47.8534 38.6413L95.3806 25.8424L100.027 0L49.7284 21.7663C42.636 24.7826 35.299 26.413 27.7175 26.413H21.4403L15.4893 40.5978H33.1795C38.3153 40.5978 42.9621 40.0272 47.8534 38.6413Z" fill="#F37021"/>
<path d="M7.9082 59.0218H42.718L88.9408 61.4674L93.5876 36.1957L45.8973 44.6739C42.6365 45.2446 39.3756 45.4892 36.1147 45.4892H13.6147L7.9082 59.0218Z" fill="#F37021"/>
<path d="M36.1141 63.6685H5.95109L0 77.7717H31.7935C40.1902 77.7717 48.6685 79.1576 56.4946 81.6032L83.6413 90L86.9022 71.8206L49.7283 65.2989C45.4076 63.913 40.7609 63.6685 36.1141 63.6685Z" fill="#F37021"/>
</svg>
