<svg width="100" height="72" fill="none" xmlns="http://www.w3.org/2000/svg">
    <path fill-rule="evenodd" clip-rule="evenodd" d="m64.479 38 28.378-26.01v48.739c0 .389-.107.742-.221 1.096L64.479 38zm-12.643 1.9c-1.079.986-2.586.993-3.668 0L12.428 7.143h75.143L51.836 39.9zM7.143 60.729v-48.74L35.52 38 7.364 61.825c-.114-.354-.221-.707-.221-1.096zM89.3 0H10.7C4.8 0 0 4.8 0 10.7v50.029c0 5.903 4.8 10.7 10.7 10.7h78.6c5.904 0 10.7-4.797 10.7-10.7V10.7C100 4.8 95.204 0 89.3 0z" fill="#8F90A6"/>
</svg>
