<svg width="90" height="90" viewBox="0 0 90 90" fill="none" xmlns="http://www.w3.org/2000/svg">
<path d="M72.5 17.5H17.5V72.5H72.5V17.5Z" fill="white"/>
<path d="M49.2002 37.3L51.7202 40.9L55.6802 38.02V58.9H60.0002V31.54H56.4002L49.2002 37.3Z" fill="#1E88E5"/>
<path d="M42.3575 44.3624C43.92 42.9274 44.89 40.9374 44.89 38.7399C44.89 34.3724 41.0575 30.8199 36.3475 30.8199C32.3425 30.8199 28.9175 33.3424 28.0225 36.9524L32.165 38.0049C32.5775 36.3449 34.335 35.1399 36.3475 35.1399C38.7025 35.1399 40.62 36.7549 40.62 38.7399C40.62 40.7249 38.7025 42.3399 36.3475 42.3399H33.855V46.6599H36.3475C39.05 46.6599 41.33 48.5374 41.33 50.7599C41.33 53.0199 39.165 54.8599 36.5025 54.8599C34.0975 54.8599 32.0425 53.3349 31.7175 51.3149L27.5 52.0049C28.155 56.0949 32.025 59.1799 36.5 59.1799C41.5175 59.1799 45.6 55.4024 45.6 50.7599C45.6 48.2024 44.34 45.9074 42.3575 44.3624Z" fill="#1E88E5"/>
<path d="M70 90H20L17.5 80L20 70H70L72.5 80L70 90Z" fill="#FBC02D"/>
<path d="M80 72.5L90 70V20L80 17.5L70 20V70L80 72.5Z" fill="#4CAF50"/>
<path d="M70 20L72.5 9.99999L70 0H7.5C3.3575 0 0 3.3575 0 7.5V70L9.99999 72.5L20 70V20H70Z" fill="#1E88E5"/>
<path d="M70 70V90L90 70H70Z" fill="#E53935"/>
<path d="M82.5 0H70V20H90V7.5C90 3.3575 86.6425 0 82.5 0Z" fill="#1565C0"/>
<path d="M7.5 90H20V70H0V82.5C0 86.6425 3.3575 90 7.5 90Z" fill="#1565C0"/>
</svg>
