<svg xmlns="http://www.w3.org/2000/svg" width="30" height="30" fill="none" viewBox="0 0 30 30">
    <path fill="#fff" d="M29.918 8.82c-.07-1.594-.328-2.69-.697-3.64-.381-1.007-.967-1.91-1.735-2.66-.75-.762-1.659-1.354-2.655-1.729-.955-.37-2.045-.627-3.64-.697C19.587.018 19.077 0 15.004 0 10.93 0 10.42.018 8.82.088c-1.594.07-2.69.328-3.64.697-1.007.381-1.91.967-2.66 1.735-.762.75-1.354 1.659-1.729 2.655-.37.955-.627 2.045-.697 3.64C.018 10.42 0 10.93 0 15.002c0 4.073.018 4.583.088 6.183.07 1.594.328 2.69.697 3.64.381 1.007.973 1.91 1.735 2.66.75.762 1.659 1.354 2.655 1.729.955.369 2.045.627 3.64.697 1.6.07 2.11.088 6.182.088 4.073 0 4.583-.017 6.183-.088 1.594-.07 2.69-.328 3.64-.697 2.015-.78 3.61-2.374 4.389-4.39.37-.955.627-2.045.697-3.64.07-1.6.088-2.109.088-6.182s-.006-4.583-.076-6.183zM27.217 21.07c-.065 1.465-.311 2.256-.516 2.783-.504 1.307-1.542 2.345-2.849 2.849-.527.205-1.324.45-2.783.515-1.583.07-2.057.088-6.06.088s-4.483-.017-6.06-.088c-1.465-.064-2.256-.31-2.784-.515-.65-.24-1.242-.622-1.723-1.12-.498-.486-.879-1.072-1.12-1.723-.204-.527-.45-1.324-.515-2.783-.07-1.583-.088-2.058-.088-6.06 0-4.003.018-4.484.088-6.06.065-1.465.31-2.256.516-2.784.24-.65.621-1.242 1.125-1.723.487-.498 1.073-.879 1.723-1.12.528-.204 1.325-.45 2.784-.515 1.582-.07 2.057-.088 6.06-.088 4.008 0 4.483.018 6.06.088 1.465.065 2.256.31 2.783.516.65.24 1.243.62 1.723 1.12.498.486.88 1.072 1.12 1.722.205.528.45 1.325.515 2.784.07 1.582.088 2.057.088 6.06 0 4.002-.017 4.471-.087 6.054z"/>
    <path fill="#fff" d="M15.003 7.297c-4.255 0-7.707 3.451-7.707 7.706 0 4.255 3.452 7.706 7.707 7.706s7.707-3.451 7.707-7.706c0-4.255-3.452-7.706-7.707-7.706zm0 12.705c-2.76 0-5-2.239-5-5 0-2.76 2.24-4.998 5-4.998s5 2.239 5 4.999-2.24 4.999-5 4.999zM24.814 6.992c0 .993-.806 1.799-1.8 1.799-.993 0-1.799-.806-1.799-1.8 0-.993.806-1.799 1.8-1.799.993 0 1.799.806 1.799 1.8z"/>
</svg>
