<svg xmlns="http://www.w3.org/2000/svg" width="30" height="30" fill="none" viewBox="0 0 30 30">
    <path fill="#fff" d="M27.606 5.791L30 3.501V3h-8.293l-5.91 14.71L9.075 3H.379v.501l2.796 3.366c.272.25.415.613.379.98v13.228c.086.476-.069.966-.404 1.313L0 26.204v.495h8.931v-.501l-3.15-3.812c-.341-.347-.502-.828-.433-1.312V9.633l7.84 17.073h.91L20.84 9.633v13.6c0 .36 0 .433-.235.668l-2.425 2.346v.503h11.765v-.501l-2.337-2.289c-.206-.155-.312-.415-.268-.668V6.46c-.044-.254.061-.514.266-.668z"/>
</svg>
