<svg xmlns="http://www.w3.org/2000/svg" width="280" height="280" fill="none" viewBox="0 0 280 280">
    <g filter="url(#filter0_d)">
        <rect width="200" height="200" x="40" y="30" fill="#9DBFF9" rx="20"/>
    </g>
    <path fill="url(#paint0_linear)" fill-rule="evenodd" d="M104 98c0 19.882 16.118 36 36 36s36-16.118 36-36c0-9.907-4.002-18.879-10.477-25.388 3.311 3.329 5.94 7.273 7.737 11.611C175.069 88.591 176 93.273 176 98h-36V62c4.728 0 9.409.931 13.777 2.74 4.338 1.797 8.282 4.426 11.611 7.737C158.879 66.002 149.907 62 140 62c-19.882 0-36 16.118-36 36z" clip-rule="evenodd"/>
    <path fill="url(#paint1_linear)" d="M178 90.5c0-4.137-.815-8.233-2.398-12.055-1.583-3.821-3.903-7.294-6.828-10.219-2.925-2.925-6.398-5.245-10.219-6.828C154.733 59.815 150.637 59 146.5 59v31.5H178z"/>
    <path fill="#fff" d="M92.537 172.16c-.96 0-1.814-.187-2.56-.56-.734-.387-1.307-.927-1.72-1.62-.4-.707-.6-1.513-.6-2.42v-5.12c0-.92.2-1.727.6-2.42.413-.693.986-1.227 1.72-1.6.746-.387 1.6-.58 2.56-.58s1.806.187 2.54.56c.733.373 1.3.893 1.7 1.56.413.653.62 1.393.62 2.22v.22c0 .133-.067.2-.2.2h-1.52c-.134 0-.2-.067-.2-.2v-.18c0-.8-.274-1.447-.82-1.94-.534-.507-1.24-.76-2.12-.76-.894 0-1.614.26-2.16.78-.534.52-.8 1.213-.8 2.08v5.24c0 .867.28 1.56.84 2.08.56.52 1.293.78 2.2.78.88 0 1.573-.227 2.08-.68.52-.467.78-1.1.78-1.9v-1.54c0-.053-.027-.08-.08-.08h-2.7c-.134 0-.2-.067-.2-.2v-1.24c0-.133.066-.2.2-.2h4.5c.133 0 .2.067.2.2v2.54c0 1.533-.44 2.713-1.32 3.54-.867.827-2.047 1.24-3.54 1.24zm15.746-6.52c.053.547.073 1.16.06 1.84 0 .133-.067.2-.2.2h-6.38c-.054 0-.08.027-.08.08 0 .453.04.8.12 1.04.146.533.44.953.88 1.26.453.293 1.02.44 1.7.44.986 0 1.746-.407 2.28-1.22.066-.133.153-.153.26-.06l1.14.76c.093.08.113.167.06.26-.374.6-.907 1.073-1.6 1.42-.68.347-1.454.52-2.32.52-.974 0-1.794-.213-2.46-.64-.667-.427-1.167-1.033-1.5-1.82-.32-.787-.48-1.74-.48-2.86 0-.973.073-1.713.22-2.22.24-.92.72-1.647 1.44-2.18.72-.533 1.593-.8 2.62-.8 1.346 0 2.353.34 3.02 1.02.666.667 1.073 1.653 1.22 2.96zm-4.24-2.32c-.574 0-1.047.147-1.42.44-.374.28-.627.66-.76 1.14-.094.293-.154.667-.18 1.12 0 .053.026.08.08.08h4.58c.053 0 .08-.027.08-.08-.027-.44-.067-.767-.12-.98-.134-.52-.4-.933-.8-1.24-.387-.32-.874-.48-1.46-.48zm11.182-1.6c.427 0 .814.087 1.16.26.094.04.127.12.1.24l-.32 1.5c-.013.12-.093.16-.24.12-.226-.093-.493-.14-.8-.14l-.28.02c-.626.027-1.146.247-1.56.66-.4.4-.6.927-.6 1.58v5.84c0 .133-.066.2-.2.2h-1.52c-.133 0-.2-.067-.2-.2v-9.78c0-.133.067-.2.2-.2h1.52c.134 0 .2.067.2.2v1.06c0 .04.007.067.02.08.027 0 .047-.013.06-.04.6-.933 1.42-1.4 2.46-1.4zm11.046 3.92c.053.547.073 1.16.06 1.84 0 .133-.067.2-.2.2h-6.38c-.053 0-.08.027-.08.08 0 .453.04.8.12 1.04.147.533.44.953.88 1.26.453.293 1.02.44 1.7.44.987 0 1.747-.407 2.28-1.22.067-.133.153-.153.26-.06l1.14.76c.093.08.113.167.06.26-.373.6-.907 1.073-1.6 1.42-.68.347-1.453.52-2.32.52-.973 0-1.793-.213-2.46-.64-.667-.427-1.167-1.033-1.5-1.82-.32-.787-.48-1.74-.48-2.86 0-.973.073-1.713.22-2.22.24-.92.72-1.647 1.44-2.18.72-.533 1.593-.8 2.62-.8 1.347 0 2.353.34 3.02 1.02.667.667 1.073 1.653 1.22 2.96zm-4.24-2.32c-.573 0-1.047.147-1.42.44-.373.28-.627.66-.76 1.14-.093.293-.153.667-.18 1.12 0 .053.027.08.08.08h4.58c.053 0 .08-.027.08-.08-.027-.44-.067-.767-.12-.98-.133-.52-.4-.933-.8-1.24-.387-.32-.873-.48-1.46-.48zm11.263-1.64c1.093 0 1.96.32 2.6.96.64.627.96 1.48.96 2.56v6.6c0 .133-.067.2-.2.2h-1.52c-.134 0-.2-.067-.2-.2v-6.22c0-.667-.194-1.207-.58-1.62-.387-.413-.9-.62-1.54-.62-.627 0-1.14.207-1.54.62-.4.413-.6.947-.6 1.6v6.24c0 .133-.067.2-.2.2h-1.52c-.134 0-.2-.067-.2-.2v-9.78c0-.133.066-.2.2-.2h1.52c.133 0 .2.067.2.2v.72c0 .027.006.047.02.06.026.013.046.007.06-.02.573-.733 1.42-1.1 2.54-1.1zm10.262 10.48c-1.013 0-1.88-.253-2.6-.76-.72-.52-1.213-1.22-1.48-2.1-.2-.613-.3-1.42-.3-2.42 0-.92.1-1.727.3-2.42.267-.853.76-1.533 1.48-2.04.734-.507 1.6-.76 2.6-.76s1.874.253 2.62.76c.747.507 1.234 1.147 1.46 1.92.08.213.134.433.16.66 0 .107-.06.173-.18.2l-1.5.22h-.04c-.093 0-.16-.06-.2-.18l-.06-.32c-.106-.453-.366-.833-.78-1.14-.413-.307-.913-.46-1.5-.46-.573 0-1.06.153-1.46.46-.4.307-.66.713-.78 1.22-.12.48-.18 1.113-.18 1.9 0 .773.06 1.4.18 1.88.134.533.394.953.78 1.26.4.307.887.46 1.46.46.587 0 1.087-.153 1.5-.46.427-.307.694-.707.8-1.2.014-.013.014-.027 0-.04 0-.027.007-.047.02-.06v-.08c.04-.107.114-.147.22-.12l1.5.24c.107.027.16.08.16.16v.08c0 .12-.033.267-.1.44-.226.813-.713 1.467-1.46 1.96-.746.493-1.62.74-2.62.74zm7.608-11.94c-.374 0-.68-.12-.92-.36s-.36-.547-.36-.92.12-.68.36-.92.546-.36.92-.36c.373 0 .68.12.92.36s.36.547.36.92-.12.68-.36.92-.547.36-.92.36zm-.8 11.76c-.134 0-.2-.067-.2-.2v-9.76c0-.133.066-.2.2-.2h1.52c.133 0 .2.067.2.2v9.76c0 .133-.067.2-.2.2h-1.52zm8.457-10.32c.814 0 1.52.147 2.12.44.614.28 1.08.68 1.4 1.2.334.507.5 1.087.5 1.74v6.76c0 .133-.066.2-.2.2h-1.52c-.133 0-.2-.067-.2-.2v-.72c0-.067-.033-.08-.1-.04-.346.36-.773.64-1.28.84-.493.187-1.046.28-1.66.28-.986 0-1.806-.247-2.46-.74-.64-.507-.96-1.267-.96-2.28 0-1.04.36-1.853 1.08-2.44.734-.6 1.754-.9 3.06-.9h2.24c.054 0 .08-.027.08-.08v-.54c0-.587-.173-1.04-.52-1.36-.333-.333-.846-.5-1.54-.5-.56 0-1.02.113-1.38.34-.346.213-.56.507-.64.88-.04.133-.12.193-.24.18l-1.62-.22c-.133-.027-.193-.08-.18-.16.107-.787.527-1.427 1.26-1.92.734-.507 1.654-.76 2.76-.76zm-.52 8.88c.707 0 1.32-.187 1.84-.56.52-.373.78-.847.78-1.42v-1.18c0-.053-.026-.08-.08-.08h-1.88c-.786 0-1.413.153-1.88.46-.466.307-.7.733-.7 1.28 0 .493.174.867.52 1.12.36.253.827.38 1.4.38zm13.452-12.34c0-.133.067-.2.2-.2h1.52c.134 0 .2.067.2.2v13.6c0 .133-.066.2-.2.2h-1.52c-.133 0-.2-.067-.2-.2v-.66c0-.027-.013-.047-.04-.06-.013-.013-.033-.007-.06.02-.293.333-.64.593-1.04.78-.4.187-.833.28-1.3.28-.96 0-1.76-.233-2.4-.7-.626-.48-1.086-1.153-1.38-2.02-.253-.707-.38-1.56-.38-2.56 0-.933.107-1.74.32-2.42.28-.88.74-1.567 1.38-2.06.64-.493 1.46-.74 2.46-.74.454 0 .88.093 1.28.28.414.173.767.427 1.06.76.027.027.047.033.06.02.027-.013.04-.033.04-.06v-4.46zm-.5 11.22c.307-.56.46-1.4.46-2.52s-.166-1.973-.5-2.56c-.386-.68-.953-1.02-1.7-1.02-.8 0-1.393.32-1.78.96-.426.667-.64 1.547-.64 2.64 0 1.027.167 1.853.5 2.48.387.733 1.02 1.1 1.9 1.1.774 0 1.36-.36 1.76-1.08zm9.395 2.74c-.987 0-1.847-.247-2.58-.74-.733-.507-1.247-1.207-1.54-2.1-.24-.72-.36-1.533-.36-2.44 0-.947.113-1.747.34-2.4.293-.88.807-1.567 1.54-2.06.733-.507 1.607-.76 2.62-.76.96 0 1.793.253 2.5.76.72.493 1.233 1.173 1.54 2.04.24.68.36 1.48.36 2.4 0 .933-.12 1.753-.36 2.46-.293.893-.8 1.593-1.52 2.1-.72.493-1.567.74-2.54.74zm0-1.66c.533 0 1-.147 1.4-.44.4-.307.687-.733.86-1.28.147-.507.22-1.133.22-1.88 0-.747-.067-1.367-.2-1.86-.173-.547-.46-.967-.86-1.26-.4-.307-.887-.46-1.46-.46-.547 0-1.02.153-1.42.46-.4.293-.687.713-.86 1.26-.147.467-.22 1.087-.22 1.86 0 .773.073 1.4.22 1.88.16.547.44.973.84 1.28.413.293.907.44 1.48.44zm11.394-8.78c.426 0 .813.087 1.16.26.093.04.126.12.1.24l-.32 1.5c-.014.12-.094.16-.24.12-.227-.093-.494-.14-.8-.14l-.28.02c-.627.027-1.147.247-1.56.66-.4.4-.6.927-.6 1.58v5.84c0 .133-.067.2-.2.2h-1.52c-.134 0-.2-.067-.2-.2v-9.78c0-.133.066-.2.2-.2h1.52c.133 0 .2.067.2.2v1.06c0 .04.006.067.02.08.026 0 .046-.013.06-.04.6-.933 1.42-1.4 2.46-1.4zm-87.587 21.74c0 .133-.067.2-.2.2h-7.08c-.053 0-.08.027-.08.08v4.3c0 .053.027.08.08.08h4.86c.133 0 .2.067.2.2v1.26c0 .133-.067.2-.2.2h-4.86c-.053 0-.08.027-.08.08v5.94c0 .133-.067.2-.2.2h-1.52c-.133 0-.2-.067-.2-.2v-13.6c0-.133.067-.2.2-.2h8.88c.133 0 .2.067.2.2v1.26zm2.949.76c-.374 0-.68-.12-.92-.36s-.36-.547-.36-.92.12-.68.36-.92.546-.36.92-.36c.373 0 .68.12.92.36s.36.547.36.92-.12.68-.36.92-.547.36-.92.36zm-.8 11.76c-.134 0-.2-.067-.2-.2v-9.76c0-.133.066-.2.2-.2h1.52c.133 0 .2.067.2.2v9.76c0 .133-.067.2-.2.2h-1.52zm9.277-10.3c1.094 0 1.96.32 2.6.96.64.627.96 1.48.96 2.56v6.6c0 .133-.066.2-.2.2h-1.52c-.133 0-.2-.067-.2-.2v-6.22c0-.667-.193-1.207-.58-1.62-.386-.413-.9-.62-1.54-.62-.626 0-1.14.207-1.54.62-.4.413-.6.947-.6 1.6v6.24c0 .133-.066.2-.2.2h-1.52c-.133 0-.2-.067-.2-.2v-9.78c0-.133.067-.2.2-.2h1.52c.134 0 .2.067.2.2v.72c0 .027.007.047.02.06.027.013.047.007.06-.02.574-.733 1.42-1.1 2.54-1.1zm10.02-.02c.814 0 1.52.147 2.12.44.614.28 1.08.68 1.4 1.2.334.507.5 1.087.5 1.74v6.76c0 .133-.066.2-.2.2h-1.52c-.133 0-.2-.067-.2-.2v-.72c0-.067-.033-.08-.1-.04-.346.36-.773.64-1.28.84-.493.187-1.046.28-1.66.28-.986 0-1.806-.247-2.46-.74-.64-.507-.96-1.267-.96-2.28 0-1.04.36-1.853 1.08-2.44.734-.6 1.754-.9 3.06-.9h2.24c.054 0 .08-.027.08-.08v-.54c0-.587-.173-1.04-.52-1.36-.333-.333-.846-.5-1.54-.5-.56 0-1.02.113-1.38.34-.346.213-.56.507-.64.88-.04.133-.12.193-.24.18l-1.62-.22c-.133-.027-.193-.08-.18-.16.107-.787.527-1.427 1.26-1.92.734-.507 1.654-.76 2.76-.76zm-.52 8.88c.707 0 1.32-.187 1.84-.56.52-.373.78-.847.78-1.42v-1.18c0-.053-.026-.08-.08-.08h-1.88c-.786 0-1.413.153-1.88.46-.466.307-.7.733-.7 1.28 0 .493.174.867.52 1.12.36.253.827.38 1.4.38zm11.672-8.86c1.094 0 1.96.32 2.6.96.64.627.96 1.48.96 2.56v6.6c0 .133-.066.2-.2.2h-1.52c-.133 0-.2-.067-.2-.2v-6.22c0-.667-.193-1.207-.58-1.62-.386-.413-.9-.62-1.54-.62-.626 0-1.14.207-1.54.62-.4.413-.6.947-.6 1.6v6.24c0 .133-.066.2-.2.2h-1.52c-.133 0-.2-.067-.2-.2v-9.78c0-.133.067-.2.2-.2h1.52c.134 0 .2.067.2.2v.72c0 .027.007.047.02.06.027.013.047.007.06-.02.574-.733 1.42-1.1 2.54-1.1zm10.263 10.48c-1.013 0-1.88-.253-2.6-.76-.72-.52-1.213-1.22-1.48-2.1-.2-.613-.3-1.42-.3-2.42 0-.92.1-1.727.3-2.42.267-.853.76-1.533 1.48-2.04.733-.507 1.6-.76 2.6-.76s1.873.253 2.62.76c.747.507 1.233 1.147 1.46 1.92.08.213.133.433.16.66 0 .107-.06.173-.18.2l-1.5.22h-.04c-.093 0-.16-.06-.2-.18l-.06-.32c-.107-.453-.367-.833-.78-1.14-.413-.307-.913-.46-1.5-.46-.573 0-1.06.153-1.46.46-.4.307-.66.713-.78 1.22-.12.48-.18 1.113-.18 1.9 0 .773.06 1.4.18 1.88.133.533.393.953.78 1.26.4.307.887.46 1.46.46.587 0 1.087-.153 1.5-.46.427-.307.693-.707.8-1.2.013-.013.013-.027 0-.04 0-.027.007-.047.02-.06v-.08c.04-.107.113-.147.22-.12l1.5.24c.107.027.16.08.16.16v.08c0 .12-.033.267-.1.44-.227.813-.713 1.467-1.46 1.96-.747.493-1.62.74-2.62.74zm14.609-6.52c.053.547.073 1.16.06 1.84 0 .133-.067.2-.2.2h-6.38c-.053 0-.08.027-.08.08 0 .453.04.8.12 1.04.147.533.44.953.88 1.26.453.293 1.02.44 1.7.44.987 0 1.747-.407 2.28-1.22.067-.133.153-.153.26-.06l1.14.76c.093.08.113.167.06.26-.373.6-.907 1.073-1.6 1.42-.68.347-1.453.52-2.32.52-.973 0-1.793-.213-2.46-.64-.667-.427-1.167-1.033-1.5-1.82-.32-.787-.48-1.74-.48-2.86 0-.973.073-1.713.22-2.22.24-.92.72-1.647 1.44-2.18.72-.533 1.593-.8 2.62-.8 1.347 0 2.353.34 3.02 1.02.667.667 1.073 1.653 1.22 2.96zm-4.24-2.32c-.573 0-1.047.147-1.42.44-.373.28-.627.66-.76 1.14-.093.293-.153.667-.18 1.12 0 .053.027.08.08.08h4.58c.053 0 .08-.027.08-.08-.027-.44-.067-.767-.12-.98-.133-.52-.4-.933-.8-1.24-.387-.32-.873-.48-1.46-.48zm7.883-3.1c-.374 0-.68-.12-.92-.36s-.36-.547-.36-.92.12-.68.36-.92.546-.36.92-.36c.373 0 .68.12.92.36s.36.547.36.92-.12.68-.36.92-.547.36-.92.36zm-.8 11.76c-.134 0-.2-.067-.2-.2v-9.76c0-.133.066-.2.2-.2h1.52c.133 0 .2.067.2.2v9.76c0 .133-.067.2-.2.2h-1.52zm9.197-10.26c.427 0 .814.087 1.16.26.094.04.127.12.1.24l-.32 1.5c-.013.12-.093.16-.24.12-.226-.093-.493-.14-.8-.14l-.28.02c-.626.027-1.146.247-1.56.66-.4.4-.6.927-.6 1.58v5.84c0 .133-.066.2-.2.2h-1.52c-.133 0-.2-.067-.2-.2v-9.78c0-.133.067-.2.2-.2h1.52c.134 0 .2.067.2.2v1.06c0 .04.007.067.02.08.027 0 .047-.013.06-.04.6-.933 1.42-1.4 2.46-1.4zm6.966 10.44c-.987 0-1.847-.247-2.58-.74-.733-.507-1.247-1.207-1.54-2.1-.24-.72-.36-1.533-.36-2.44 0-.947.113-1.747.34-2.4.293-.88.807-1.567 1.54-2.06.733-.507 1.607-.76 2.62-.76.96 0 1.793.253 2.5.76.72.493 1.233 1.173 1.54 2.04.24.68.36 1.48.36 2.4 0 .933-.12 1.753-.36 2.46-.293.893-.8 1.593-1.52 2.1-.72.493-1.567.74-2.54.74zm0-1.66c.533 0 1-.147 1.4-.44.4-.307.687-.733.86-1.28.147-.507.22-1.133.22-1.88 0-.747-.067-1.367-.2-1.86-.173-.547-.46-.967-.86-1.26-.4-.307-.887-.46-1.46-.46-.547 0-1.02.153-1.42.46-.4.293-.687.713-.86 1.26-.147.467-.22 1.087-.22 1.86 0 .773.073 1.4.22 1.88.16.547.44.973.84 1.28.413.293.907.44 1.48.44z"/>
    <defs>
        <linearGradient id="paint0_linear" x1="176" x2="104" y1="62" y2="134" gradientUnits="userSpaceOnUse">
            <stop stop-color="#fff"/>
            <stop offset="1" stop-color="#fff" stop-opacity="0"/>
        </linearGradient>
        <linearGradient id="paint1_linear" x1="178" x2="115" y1="59" y2="122" gradientUnits="userSpaceOnUse">
            <stop stop-color="#fff"/>
            <stop offset="1" stop-color="#fff" stop-opacity="0"/>
        </linearGradient>
        <filter id="filter0_d" width="280" height="280" x="0" y="0" color-interpolation-filters="sRGB" filterUnits="userSpaceOnUse">
            <feFlood flood-opacity="0" result="BackgroundImageFix"/>
            <feColorMatrix in="SourceAlpha" values="0 0 0 0 0 0 0 0 0 0 0 0 0 0 0 0 0 0 127 0"/>
            <feOffset dy="10"/>
            <feGaussianBlur stdDeviation="20"/>
            <feColorMatrix values="0 0 0 0 0.782 0 0 0 0 0.786533 0 0 0 0 0.85 0 0 0 0.5 0"/>
            <feBlend in2="BackgroundImageFix" result="effect1_dropShadow"/>
            <feBlend in="SourceGraphic" in2="effect1_dropShadow" result="shape"/>
        </filter>
    </defs>
</svg>
