<svg xmlns="http://www.w3.org/2000/svg" width="280" height="280" fill="none" viewBox="0 0 280 280">
    <g filter="url(#filter0_d)">
        <rect width="200" height="200" x="40" y="30" fill="#9DBFF9" rx="20"/>
    </g>
    <circle cx="140" cy="72" r="10" fill="url(#paint0_linear)"/>
    <circle cx="140" cy="98" r="10" fill="url(#paint1_linear)"/>
    <circle cx="140" cy="124" r="10" fill="url(#paint2_linear)"/>
    <circle cx="114" cy="72" r="10" fill="url(#paint3_linear)"/>
    <circle cx="114" cy="98" r="10" fill="url(#paint4_linear)"/>
    <circle cx="114" cy="124" r="10" fill="url(#paint5_linear)"/>
    <circle cx="166" cy="72" r="10" fill="url(#paint6_linear)"/>
    <circle cx="166" cy="98" r="10" fill="url(#paint7_linear)"/>
    <circle cx="166" cy="124" r="10" fill="url(#paint8_linear)"/>
    <path fill="#fff" d="M84.232 184c-.12 0-.2-.053-.24-.16l-.72-2.34c-.014-.04-.04-.06-.08-.06h-5.62c-.04 0-.067.02-.08.06l-.72 2.34c-.04.107-.12.16-.24.16h-1.62c-.147 0-.2-.073-.16-.22l4.38-13.62c.04-.107.12-.16.24-.16h2c.12 0 .2.053.24.16l4.42 13.62.02.08c0 .093-.06.14-.18.14h-1.64zm-6.24-4.18c-.014.027-.014.053 0 .08.026.013.053.02.08.02h4.6c.026 0 .047-.007.06-.02.026-.027.033-.053.02-.08l-2.32-7.42c-.014-.027-.034-.04-.06-.04-.027 0-.047.013-.06.04l-2.32 7.42zm15.928-5.8c0-.133.066-.2.2-.2h1.52c.133 0 .2.067.2.2v9.46c0 1.613-.46 2.767-1.38 3.46-.907.693-2.127 1.04-3.66 1.04-.214 0-.547-.013-1-.04-.134-.013-.2-.087-.2-.22l.06-1.38c0-.053.02-.1.06-.14.04-.04.093-.053.16-.04.186.013.46.02.82.02 1.133 0 1.953-.213 2.46-.64.506-.413.76-1.12.76-2.12v-.36c0-.027-.014-.047-.04-.06-.014-.013-.034-.007-.06.02-.56.653-1.38.98-2.46.98-.867 0-1.654-.227-2.36-.68-.694-.453-1.174-1.12-1.44-2-.174-.587-.26-1.4-.26-2.44 0-1.107.1-1.96.3-2.56.253-.8.7-1.44 1.34-1.92.653-.493 1.42-.74 2.3-.74 1.093 0 1.953.333 2.58 1 .026.027.046.04.06.04.026-.013.04-.033.04-.06v-.62zm-.12 6.72c.04-.213.066-.44.08-.68.026-.24.04-.64.04-1.2 0-.56-.014-.953-.04-1.18-.014-.24-.047-.467-.1-.68-.107-.493-.347-.893-.72-1.2-.374-.32-.84-.48-1.4-.48-.56 0-1.027.16-1.4.48-.374.307-.64.707-.8 1.2-.147.4-.22 1.02-.22 1.86 0 .92.066 1.547.2 1.88.133.493.393.9.78 1.22.4.307.88.46 1.44.46.586 0 1.06-.153 1.42-.46.373-.32.613-.727.72-1.22zm12.959-3.1c.053.547.073 1.16.06 1.84 0 .133-.067.2-.2.2h-6.38c-.053 0-.08.027-.08.08 0 .453.04.8.12 1.04.147.533.44.953.88 1.26.453.293 1.02.44 1.7.44.987 0 1.747-.407 2.28-1.22.067-.133.153-.153.26-.06l1.14.76c.093.08.113.167.06.26-.373.6-.907 1.073-1.6 1.42-.68.347-1.453.52-2.32.52-.973 0-1.793-.213-2.46-.64-.666-.427-1.166-1.033-1.5-1.82-.32-.787-.48-1.74-.48-2.86 0-.973.073-1.713.22-2.22.24-.92.72-1.647 1.44-2.18.72-.533 1.593-.8 2.62-.8 1.347 0 2.353.34 3.02 1.02.667.667 1.073 1.653 1.22 2.96zm-4.24-2.32c-.573 0-1.047.147-1.42.44-.373.28-.627.66-.76 1.14-.093.293-.153.667-.18 1.12 0 .053.027.08.08.08h4.58c.053 0 .08-.027.08-.08-.027-.44-.067-.767-.12-.98-.133-.52-.4-.933-.8-1.24-.387-.32-.873-.48-1.46-.48zm11.263-1.64c1.093 0 1.96.32 2.6.96.64.627.96 1.48.96 2.56v6.6c0 .133-.067.2-.2.2h-1.52c-.134 0-.2-.067-.2-.2v-6.22c0-.667-.194-1.207-.58-1.62-.387-.413-.9-.62-1.54-.62-.627 0-1.14.207-1.54.62-.4.413-.6.947-.6 1.6v6.24c0 .133-.067.2-.2.2h-1.52c-.134 0-.2-.067-.2-.2v-9.78c0-.133.066-.2.2-.2h1.52c.133 0 .2.067.2.2v.72c0 .027.006.047.02.06.026.013.046.007.06-.02.573-.733 1.42-1.1 2.54-1.1zm12.502-3.48c0-.133.067-.2.2-.2h1.52c.134 0 .2.067.2.2v13.6c0 .133-.066.2-.2.2h-1.52c-.133 0-.2-.067-.2-.2v-.66c0-.027-.013-.047-.04-.06-.013-.013-.033-.007-.06.02-.293.333-.64.593-1.04.78-.4.187-.833.28-1.3.28-.96 0-1.76-.233-2.4-.7-.626-.48-1.086-1.153-1.38-2.02-.253-.707-.38-1.56-.38-2.56 0-.933.107-1.74.32-2.42.28-.88.74-1.567 1.38-2.06.64-.493 1.46-.74 2.46-.74.454 0 .88.093 1.28.28.414.173.767.427 1.06.76.027.027.047.033.06.02.027-.013.04-.033.04-.06v-4.46zm-.5 11.22c.307-.56.46-1.4.46-2.52s-.166-1.973-.5-2.56c-.386-.68-.953-1.02-1.7-1.02-.8 0-1.393.32-1.78.96-.426.667-.64 1.547-.64 2.64 0 1.027.167 1.853.5 2.48.387.733 1.02 1.1 1.9 1.1.774 0 1.36-.36 1.76-1.08zm8.955-7.76c.813 0 1.52.147 2.12.44.613.28 1.08.68 1.4 1.2.333.507.5 1.087.5 1.74v6.76c0 .133-.067.2-.2.2h-1.52c-.133 0-.2-.067-.2-.2v-.72c0-.067-.033-.08-.1-.04-.347.36-.773.64-1.28.84-.493.187-1.047.28-1.66.28-.987 0-1.807-.247-2.46-.74-.64-.507-.96-1.267-.96-2.28 0-1.04.36-1.853 1.08-2.44.733-.6 1.753-.9 3.06-.9h2.24c.053 0 .08-.027.08-.08v-.54c0-.587-.173-1.04-.52-1.36-.333-.333-.847-.5-1.54-.5-.56 0-1.02.113-1.38.34-.347.213-.56.507-.64.88-.04.133-.12.193-.24.18l-1.62-.22c-.133-.027-.193-.08-.18-.16.107-.787.527-1.427 1.26-1.92.733-.507 1.653-.76 2.76-.76zm-.52 8.88c.707 0 1.32-.187 1.84-.56.52-.373.78-.847.78-1.42v-1.18c0-.053-.027-.08-.08-.08h-1.88c-.787 0-1.413.153-1.88.46-.467.307-.7.733-.7 1.28 0 .493.173.867.52 1.12.36.253.827.38 1.4.38zm17.712-8.86c1.014 0 1.814.307 2.4.92.587.6.88 1.44.88 2.52v6.68c0 .133-.066.2-.2.2h-1.5c-.133 0-.2-.067-.2-.2v-6.28c0-.667-.186-1.193-.56-1.58-.36-.4-.846-.6-1.46-.6-.613 0-1.113.193-1.5.58-.386.387-.58.907-.58 1.56v6.32c0 .133-.066.2-.2.2h-1.5c-.133 0-.2-.067-.2-.2v-6.28c0-.667-.186-1.193-.56-1.58-.36-.4-.846-.6-1.46-.6-.613 0-1.106.193-1.48.58-.36.387-.54.907-.54 1.56v6.32c0 .133-.066.2-.2.2h-1.52c-.133 0-.2-.067-.2-.2v-9.78c0-.133.067-.2.2-.2h1.52c.134 0 .2.067.2.2v.68c0 .027.007.047.02.06.027.013.054.007.08-.02.587-.707 1.44-1.06 2.56-1.06.68 0 1.26.133 1.74.4.48.253.854.633 1.12 1.14.04.053.08.053.12 0 .32-.52.74-.907 1.26-1.16.534-.253 1.12-.38 1.76-.38zm14.066 3.96c.054.547.074 1.16.06 1.84 0 .133-.066.2-.2.2h-6.38c-.053 0-.08.027-.08.08 0 .453.04.8.12 1.04.147.533.44.953.88 1.26.454.293 1.02.44 1.7.44.987 0 1.747-.407 2.28-1.22.067-.133.154-.153.26-.06l1.14.76c.094.08.114.167.06.26-.373.6-.906 1.073-1.6 1.42-.68.347-1.453.52-2.32.52-.973 0-1.793-.213-2.46-.64-.666-.427-1.166-1.033-1.5-1.82-.32-.787-.48-1.74-.48-2.86 0-.973.074-1.713.22-2.22.24-.92.72-1.647 1.44-2.18.72-.533 1.594-.8 2.62-.8 1.347 0 2.354.34 3.02 1.02.667.667 1.074 1.653 1.22 2.96zm-4.24-2.32c-.573 0-1.046.147-1.42.44-.373.28-.626.66-.76 1.14-.093.293-.153.667-.18 1.12 0 .053.027.08.08.08h4.58c.054 0 .08-.027.08-.08-.026-.44-.066-.767-.12-.98-.133-.52-.4-.933-.8-1.24-.386-.32-.873-.48-1.46-.48zm11.263-1.64c1.093 0 1.96.32 2.6.96.64.627.96 1.48.96 2.56v6.6c0 .133-.067.2-.2.2h-1.52c-.133 0-.2-.067-.2-.2v-6.22c0-.667-.193-1.207-.58-1.62-.387-.413-.9-.62-1.54-.62-.627 0-1.14.207-1.54.62-.4.413-.6.947-.6 1.6v6.24c0 .133-.067.2-.2.2h-1.52c-.133 0-.2-.067-.2-.2v-9.78c0-.133.067-.2.2-.2h1.52c.133 0 .2.067.2.2v.72c0 .027.007.047.02.06.027.013.047.007.06-.02.573-.733 1.42-1.1 2.54-1.1zm11.32 1.52c0 .133-.067.2-.2.2h-2.16c-.053 0-.08.027-.08.08v5.3c0 .56.127.967.38 1.22.253.24.647.36 1.18.36h.58c.133 0 .2.067.2.2v1.24c0 .133-.067.2-.2.2-.427.027-.733.04-.92.04-1.013 0-1.78-.18-2.3-.54-.507-.373-.76-1.053-.76-2.04v-5.98c0-.053-.027-.08-.08-.08h-1.22c-.133 0-.2-.067-.2-.2v-1.18c0-.133.067-.2.2-.2h1.22c.053 0 .08-.027.08-.08v-2.36c0-.133.067-.2.2-.2h1.44c.133 0 .2.067.2.2v2.36c0 .053.027.08.08.08h2.16c.133 0 .2.067.2.2v1.18zm6.288 8.96c-.986 0-1.846-.247-2.58-.74-.733-.507-1.246-1.207-1.54-2.1-.24-.72-.36-1.533-.36-2.44 0-.947.114-1.747.34-2.4.294-.88.807-1.567 1.54-2.06.734-.507 1.607-.76 2.62-.76.96 0 1.794.253 2.5.76.72.493 1.234 1.173 1.54 2.04.24.68.36 1.48.36 2.4 0 .933-.12 1.753-.36 2.46-.293.893-.8 1.593-1.52 2.1-.72.493-1.566.74-2.54.74zm0-1.66c.534 0 1-.147 1.4-.44.4-.307.687-.733.86-1.28.147-.507.22-1.133.22-1.88 0-.747-.066-1.367-.2-1.86-.173-.547-.46-.967-.86-1.26-.4-.307-.886-.46-1.46-.46-.546 0-1.02.153-1.42.46-.4.293-.686.713-.86 1.26-.146.467-.22 1.087-.22 1.86 0 .773.074 1.4.22 1.88.16.547.44.973.84 1.28.414.293.907.44 1.48.44zm10.514 1.62c-.8 0-1.507-.12-2.12-.36-.6-.24-1.067-.567-1.4-.98-.333-.427-.5-.893-.5-1.4v-.22c0-.133.067-.2.2-.2h1.44c.133 0 .2.067.2.2v.1c0 .373.2.7.6.98.413.28.933.42 1.56.42.6 0 1.087-.127 1.46-.38.373-.267.56-.6.56-1 0-.387-.173-.673-.52-.86-.347-.2-.907-.407-1.68-.62-.76-.213-1.4-.427-1.92-.64-.507-.227-.94-.54-1.3-.94-.347-.413-.52-.94-.52-1.58 0-.893.347-1.6 1.04-2.12.707-.533 1.64-.8 2.8-.8.773 0 1.453.127 2.04.38.6.24 1.06.58 1.38 1.02.32.44.48.933.48 1.48v.06c0 .133-.067.2-.2.2h-1.4c-.133 0-.2-.067-.2-.2v-.06c0-.387-.193-.707-.58-.96-.373-.267-.887-.4-1.54-.4-.587 0-1.067.113-1.44.34-.36.227-.54.533-.54.92s.173.68.52.88c.36.2.933.413 1.72.64.773.213 1.413.427 1.92.64.52.2.96.507 1.32.92.36.4.54.927.54 1.58 0 .907-.36 1.627-1.08 2.16-.707.533-1.653.8-2.84.8z"/>
    <defs>
        <linearGradient id="paint0_linear" x1="150" x2="130" y1="62" y2="82" gradientUnits="userSpaceOnUse">
            <stop stop-color="#fff"/>
            <stop offset="1" stop-color="#fff" stop-opacity="0"/>
        </linearGradient>
        <linearGradient id="paint1_linear" x1="150" x2="130" y1="88" y2="108" gradientUnits="userSpaceOnUse">
            <stop stop-color="#fff"/>
            <stop offset="1" stop-color="#fff" stop-opacity="0"/>
        </linearGradient>
        <linearGradient id="paint2_linear" x1="150" x2="130" y1="114" y2="134" gradientUnits="userSpaceOnUse">
            <stop stop-color="#fff"/>
            <stop offset="1" stop-color="#fff" stop-opacity="0"/>
        </linearGradient>
        <linearGradient id="paint3_linear" x1="124" x2="104" y1="62" y2="82" gradientUnits="userSpaceOnUse">
            <stop stop-color="#fff"/>
            <stop offset="1" stop-color="#fff" stop-opacity="0"/>
        </linearGradient>
        <linearGradient id="paint4_linear" x1="124" x2="104" y1="88" y2="108" gradientUnits="userSpaceOnUse">
            <stop stop-color="#fff"/>
            <stop offset="1" stop-color="#fff" stop-opacity="0"/>
        </linearGradient>
        <linearGradient id="paint5_linear" x1="124" x2="104" y1="114" y2="134" gradientUnits="userSpaceOnUse">
            <stop stop-color="#fff"/>
            <stop offset="1" stop-color="#fff" stop-opacity="0"/>
        </linearGradient>
        <linearGradient id="paint6_linear" x1="176" x2="156" y1="62" y2="82" gradientUnits="userSpaceOnUse">
            <stop stop-color="#fff"/>
            <stop offset="1" stop-color="#fff" stop-opacity="0"/>
        </linearGradient>
        <linearGradient id="paint7_linear" x1="176" x2="156" y1="88" y2="108" gradientUnits="userSpaceOnUse">
            <stop stop-color="#fff"/>
            <stop offset="1" stop-color="#fff" stop-opacity="0"/>
        </linearGradient>
        <linearGradient id="paint8_linear" x1="176" x2="156" y1="114" y2="134" gradientUnits="userSpaceOnUse">
            <stop stop-color="#fff"/>
            <stop offset="1" stop-color="#fff" stop-opacity="0"/>
        </linearGradient>
        <filter id="filter0_d" width="280" height="280" x="0" y="0" color-interpolation-filters="sRGB" filterUnits="userSpaceOnUse">
            <feFlood flood-opacity="0" result="BackgroundImageFix"/>
            <feColorMatrix in="SourceAlpha" values="0 0 0 0 0 0 0 0 0 0 0 0 0 0 0 0 0 0 127 0"/>
            <feOffset dy="10"/>
            <feGaussianBlur stdDeviation="20"/>
            <feColorMatrix values="0 0 0 0 0.782 0 0 0 0 0.786533 0 0 0 0 0.85 0 0 0 0.5 0"/>
            <feBlend in2="BackgroundImageFix" result="effect1_dropShadow"/>
            <feBlend in="SourceGraphic" in2="effect1_dropShadow" result="shape"/>
        </filter>
    </defs>
</svg>
