<svg xmlns="http://www.w3.org/2000/svg" width="295" height="271" fill="none" viewBox="0 0 295 271">
    <g filter="url(#filter0_d)">
        <path fill="url(#paint0_linear)" d="M191.864 122.617l24.634-8.974c3.018-1.099 6.208-.867 8.915.395 2.709 1.262 4.94 3.556 6.04 6.578l9.621 26.406c1.096 3.015.861 6.201-.399 8.906-1.261 2.708-3.555 4.939-6.577 6.04l-16.05 5.847h23.959c3.438 0 6.562 1.405 8.825 3.668 2.262 2.262 3.667 5.386 3.667 8.824v28.094c0 3.439-1.405 6.562-3.667 8.825-2.263 2.263-5.387 3.668-8.825 3.668H84.983c-3.438 0-6.563-1.405-8.825-3.668-1.415-1.415-2.495-3.168-3.106-5.123-.099-.094-.185-.199-.256-.313l-22.578-3.953c-3.158-.555-5.802-2.35-7.518-4.795-1.718-2.448-2.51-5.549-1.956-8.709 10.555-50.664 17.264-103.648 27.08-154.692.557-3.154 2.35-5.795 4.794-7.51 2.448-1.719 5.55-2.51 8.71-1.957l27.675 4.845c3.161.554 5.81 2.35 7.528 4.797 1.133 1.615 1.863 3.513 2.07 5.526l.191-.332c1.606-2.787 4.199-4.661 7.083-5.437 2.882-.775 6.063-.454 8.847 1.15l24.379 14.045c2.767 1.607 4.63 4.191 5.403 7.063.772 2.873.455 6.043-1.136 8.82l-9.748 16.92L173.701 70.7c2.459-2.065 5.536-2.938 8.512-2.679 2.978.258 5.861 1.65 7.93 4.112l18.012 21.44c.045.048.086.096.123.147 2.02 2.446 2.872 5.49 2.616 8.436-.254 2.929-1.61 5.769-4.005 7.831-.055.057-.113.108-.175.154l-14.85 12.476zm16.632 45.198l24.366-8.877c.074-.034.15-.062.229-.084 2.111-.802 3.718-2.388 4.613-4.309.895-1.922 1.076-4.174.332-6.308-.033-.073-.061-.149-.082-.228l-9.574-26.28c-.788-2.162-2.396-3.809-4.35-4.72-1.954-.911-4.252-1.081-6.417-.293l-33.062 12.045-46.485 39.054h70.43zm-104.873 0l42.483-73.74c.036-.075.078-.148.125-.216l14.292-24.808c1.15-1.997 1.377-4.29.817-6.374-.559-2.081-1.904-3.948-3.897-5.097l-24.347-14.026c-1.997-1.151-4.29-1.378-6.375-.818-2.082.56-3.95 1.905-5.099 3.9l-3.224 5.598c-.163.284-.4.5-.672.64L97.605 167.814h6.018z"/>
    </g>
    <defs>
        <linearGradient id="paint0_linear" x1="254" x2="5.202" y1="30" y2="110.878" gradientUnits="userSpaceOnUse">
            <stop stop-color="#0063F7"/>
            <stop offset="1" stop-color="#9DBFF9"/>
        </linearGradient>
        <filter id="filter0_d" width="293.93" height="270.894" x=".569" y="0" color-interpolation-filters="sRGB" filterUnits="userSpaceOnUse">
            <feFlood flood-opacity="0" result="BackgroundImageFix"/>
            <feColorMatrix in="SourceAlpha" values="0 0 0 0 0 0 0 0 0 0 0 0 0 0 0 0 0 0 127 0"/>
            <feOffset dy="10"/>
            <feGaussianBlur stdDeviation="20"/>
            <feColorMatrix values="0 0 0 0 0.782 0 0 0 0 0.786533 0 0 0 0 0.85 0 0 0 0.5 0"/>
            <feBlend in2="BackgroundImageFix" result="effect1_dropShadow"/>
            <feBlend in="SourceGraphic" in2="effect1_dropShadow" result="shape"/>
        </filter>
    </defs>
</svg>
