<svg xmlns="http://www.w3.org/2000/svg" width="385" height="241" fill="none" viewBox="0 0 385 241">
    <g filter="url(#filter0_d)">
        <path fill="url(#paint0_linear)" d="M102.643 30C97.46 45.061 89.23 58.352 78.687 68.683c-10.541 10.331-23.065 17.38-36.449 20.514-.472.13-.884.475-1.147.96-.264.487-.359 1.076-.266 1.644.093.568.367 1.07.765 1.402.397.331.887.466 1.366.374 3.766-.883 7.479-2.066 11.113-3.54v33.55h-8.202c-.824.004-1.614.399-2.196 1.096-.582.698-.908 1.642-.908 2.627 0 .984.326 1.928.908 2.625.582.698 1.372 1.092 2.196 1.096h58.824v49.928h-4.36c-1.052.039-2.05.565-2.783 1.467-.732.902-1.142 2.109-1.142 3.365 0 1.257.41 2.464 1.142 3.366.733.902 1.73 1.428 2.783 1.467h16.856c1.052-.039 2.05-.565 2.782-1.467.733-.902 1.142-2.109 1.142-3.366 0-1.256-.409-2.463-1.142-3.365-.732-.902-1.73-1.428-2.782-1.467h-4.361v-49.928h159.349v49.848h-4.373c-1.076 0-2.107.51-2.867 1.418-.761.908-1.188 2.139-1.188 3.423 0 1.284.427 2.515 1.188 3.422.76.908 1.791 1.419 2.867 1.419h16.869c1.075 0 2.106-.511 2.867-1.419.76-.907 1.187-2.138 1.187-3.422 0-1.284-.427-2.515-1.187-3.423-.761-.908-1.792-1.418-2.867-1.418h-4.374v-49.848h58.824c.824-.004 1.614-.398 2.196-1.096.581-.697.908-1.641.908-2.625 0-.985-.327-1.929-.908-2.627-.582-.697-1.372-1.092-2.196-1.096h-8.202v-33.55c3.638 1.475 7.355 2.658 11.126 3.54.479.091.968-.043 1.366-.375.397-.331.671-.835.764-1.402.093-.568-.003-1.157-.266-1.642-.263-.486-.674-.83-1.146-.961-13.384-3.134-25.908-10.183-36.45-20.514C295.771 58.353 287.54 45.061 282.357 30h-12.003c-7.105 17.432-18.172 32.127-31.938 42.408-13.767 10.28-29.677 15.732-45.915 15.732s-32.149-5.452-45.915-15.732C132.819 62.127 121.752 47.432 114.648 30h-12.005zm2.048 5.554v88.033H93.976V56.424c4.255-6.423 7.851-13.43 10.715-20.87zm8.135 0c2.706 6.05 5.888 11.78 9.505 17.11v70.923h-9.505V35.554zm159.349 0v88.033h-9.505V52.663c3.617-5.329 6.799-11.058 9.505-17.109zm8.122 0c2.863 7.44 6.46 14.447 10.714 20.87v67.163h-10.714V35.554zM124.578 55.853c3.162 4.309 6.607 8.31 10.302 11.966v55.768h-10.302V55.853zm135.846 0v67.734h-10.303V67.819c3.695-3.655 7.14-7.657 10.303-11.966zm-168.68 3.825v63.909H81.427V71.77c3.716-3.679 7.166-7.724 10.315-12.092zm201.514 0c3.149 4.368 6.6 8.413 10.316 12.092v51.817h-10.316v-63.91zM137.127 69.962c3.275 3.035 6.722 5.798 10.316 8.268v45.357h-10.316V69.961zm110.747 0v53.625h-10.315V78.23c3.593-2.47 7.04-5.233 10.315-8.269zM79.181 73.928v49.658H68.878v-41.47c3.594-2.43 7.037-5.167 10.303-8.188zm226.64 0c3.265 3.02 6.708 5.757 10.302 8.189v41.469h-10.302V73.929zm-156.145 5.793c3.336 2.14 6.781 4.027 10.315 5.65v38.215h-10.315V79.722zm85.636 0v43.865H225.01V85.372c3.53-1.624 6.97-3.51 10.302-5.65zm-168.68 3.872v39.993H56.316V89.086c3.535-1.56 6.981-3.394 10.316-5.492zm251.738 0c3.334 2.098 6.78 3.933 10.315 5.492v34.501H318.37V83.594zM162.238 86.37c3.372 1.433 6.812 2.625 10.303 3.57v33.645h-10.303V86.37zm60.525 0v37.215h-10.315V89.94c3.495-.945 6.939-2.136 10.315-3.57zm-47.976 4.141c3.408.813 6.852 1.39 10.316 1.73v31.344h-10.316V90.511zm35.427 0v33.074h-10.316V92.241c3.464-.34 6.908-.917 10.316-1.73zm-22.864 1.92c3.431.234 6.87.234 10.302 0v31.153H187.35V92.431z"/>
    </g>
    <defs>
        <linearGradient id="paint0_linear" x1="344" x2="53.117" y1=".768" y2="207.765" gradientUnits="userSpaceOnUse">
            <stop stop-color="#0063F7"/>
            <stop offset="1" stop-color="#9DBFF9"/>
        </linearGradient>
        <filter id="filter0_d" width="383.419" height="240.624" x=".79" y="0" color-interpolation-filters="sRGB" filterUnits="userSpaceOnUse">
            <feFlood flood-opacity="0" result="BackgroundImageFix"/>
            <feColorMatrix in="SourceAlpha" values="0 0 0 0 0 0 0 0 0 0 0 0 0 0 0 0 0 0 127 0"/>
            <feOffset dy="10"/>
            <feGaussianBlur stdDeviation="20"/>
            <feColorMatrix values="0 0 0 0 0.782 0 0 0 0 0.786533 0 0 0 0 0.85 0 0 0 0.5 0"/>
            <feBlend in2="BackgroundImageFix" result="effect1_dropShadow"/>
            <feBlend in="SourceGraphic" in2="effect1_dropShadow" result="shape"/>
        </filter>
    </defs>
</svg>
