<svg xmlns="http://www.w3.org/2000/svg" width="30" height="30" fill="none" viewBox="0 0 30 30">
    <path fill="#fff" d="M30 5.886c-1.116.489-2.304.813-3.544.97 1.275-.76 2.248-1.957 2.706-3.398-1.189.708-2.501 1.209-3.9 1.488C24.133 3.744 22.524 3 20.769 3c-3.405 0-6.146 2.764-6.146 6.152 0 .487.041.956.143 1.402-5.114-.249-9.638-2.7-12.677-6.433-.53.92-.842 1.975-.842 3.109 0 2.13 1.097 4.018 2.732 5.111-.988-.018-1.958-.305-2.779-.757v.067c0 2.989 2.132 5.471 4.928 6.043-.501.137-1.047.203-1.613.203-.394 0-.791-.023-1.164-.105.796 2.435 3.058 4.226 5.747 4.284-2.093 1.637-4.75 2.623-7.626 2.623-.504 0-.988-.022-1.472-.084 2.724 1.757 5.953 2.76 9.435 2.76C20.753 27.375 26.94 18 26.94 9.874c0-.272-.01-.535-.023-.795C28.139 8.212 29.165 7.13 30 5.886z"/>
</svg>
