<svg width="100" height="99" viewBox="0 0 100 99" fill="none" xmlns="http://www.w3.org/2000/svg">
<path d="M2.28662 97.1509L9.02773 72.6467C4.86889 65.4752 2.68185 57.3389 2.68447 49.006C2.69538 22.9331 24.0103 1.72095 50.1996 1.72095C62.9105 1.72666 74.8405 6.65133 83.8102 15.5894C92.7819 24.5274 97.7197 36.408 97.7146 49.043C97.7037 75.1166 76.3875 96.3306 50.2015 96.3306C50.1996 96.3306 50.2028 96.3306 50.2015 96.3306H50.1803C42.2284 96.3281 34.4149 94.3409 27.4753 90.5756L2.28662 97.1509Z" fill="url(#paint0_linear)"/>
<path fill-rule="evenodd" clip-rule="evenodd" d="M37.9061 28.5134C36.9849 26.4745 36.0151 26.4337 35.1387 26.398C34.4218 26.3674 33.6012 26.3693 32.7819 26.3693C31.9619 26.3693 30.6294 26.6761 29.5026 27.9012C28.3752 29.1263 25.1978 32.088 25.1978 38.1115C25.1978 44.1357 29.6051 49.9564 30.2195 50.7739C30.8344 51.5903 38.7274 64.3465 51.2275 69.254C61.6162 73.3324 63.7303 72.5211 65.9852 72.317C68.2401 72.1129 73.2612 69.356 74.2862 66.4969C75.3111 63.6385 75.3111 61.1883 75.0036 60.6762C74.6961 60.166 73.8762 59.8599 72.6462 59.2476C71.4162 58.6354 65.3702 55.6731 64.2428 55.2649C63.1153 54.8568 62.2953 54.6527 61.4753 55.8785C60.6554 57.1029 58.2998 59.8599 57.5823 60.6762C56.8648 61.4944 56.1474 61.5964 54.9174 60.9842C53.6874 60.3701 49.7265 59.0786 45.0277 54.9077C41.3718 51.6628 38.9035 47.6552 38.186 46.4295C37.4685 45.205 38.1091 44.5418 38.7261 43.9314C39.2782 43.3829 39.956 42.5022 40.571 41.7873C41.1847 41.0724 41.3897 40.5622 41.7997 39.7458C42.2096 38.9282 42.0047 38.2134 41.6972 37.6011C41.3897 36.9889 38.9996 30.9343 37.9061 28.5134Z" fill="white"/>
<path d="M85.0234 14.3749C75.7301 5.11676 63.3729 0.0154394 50.2072 0.00964355C23.0768 0.00964355 0.998311 21.9826 0.987405 48.9905C0.984207 57.6238 3.25005 66.0509 7.55681 73.4794L0.574219 98.8617L26.6661 92.0505C33.855 95.9535 41.9491 98.0103 50.186 98.0134H50.2069H50.2072C77.333 98.0134 99.4147 76.0367 99.4262 49.03C99.4308 35.9409 94.3155 23.6337 85.0234 14.3749ZM50.2072 89.7406H50.1912C42.8492 89.7368 35.6494 87.7745 29.3695 84.0647L27.8749 83.1827L12.3915 87.2241L16.5253 72.2007L15.5516 70.6606C11.4562 64.1779 9.29418 56.6862 9.29738 48.9937C9.30631 26.5457 27.6571 8.28317 50.2226 8.28317C61.1501 8.28766 71.4203 12.528 79.1447 20.2231C86.8685 27.9182 91.1189 38.1476 91.1157 49.027C91.106 71.4756 72.7545 89.7406 50.2072 89.7406Z" fill="white"/>
<defs>
<linearGradient id="paint0_linear" x1="50.0006" y1="97.1509" x2="50.0006" y2="1.72111" gradientUnits="userSpaceOnUse">
<stop stop-color="#20B038"/>
<stop offset="1" stop-color="#60D66A"/>
</linearGradient>
</defs>
</svg>
