<svg xmlns="http://www.w3.org/2000/svg" width="30" height="30" fill="none" viewBox="0 0 30 30">
    <path fill="#fff" d="M29.382 7.287c-.346-1.285-1.36-2.299-2.644-2.645C24.39 4 15 4 15 4s-9.39 0-11.738.618C2.002 4.964.964 6.002.618 7.287 0 9.634 0 14.502 0 14.502s0 4.893.618 7.216c.346 1.285 1.359 2.298 2.644 2.644 2.372.643 11.738.643 11.738.643s9.39 0 11.738-.618c1.285-.346 2.298-1.36 2.644-2.644.618-2.348.618-7.216.618-7.216s.025-4.893-.618-7.24zM12.01 19v-8.995l7.809 4.497L12.009 19z"/>
</svg>
