<svg xmlns="http://www.w3.org/2000/svg" width="25" height="25" fill="none" viewBox="0 0 25 25">
    <path fill="#E0E0E0" d="M21.358 3.633C19.008 1.292 15.882.001 12.552 0 5.691 0 .107 5.557.105 12.387c-.001 2.184.572 4.315 1.66 6.194L0 25l6.599-1.723c1.818.988 3.865 1.508 5.948 1.508h.005c6.86 0 12.445-5.558 12.448-12.388.001-3.31-1.293-6.422-3.642-8.764zm-8.806 19.06h-.004c-1.857 0-3.677-.497-5.266-1.435l-.378-.223-3.915 1.022 1.045-3.8-.246-.39c-1.036-1.639-1.583-3.533-1.582-5.479.002-5.677 4.643-10.296 10.35-10.296 2.764.002 5.361 1.074 7.315 3.02 1.953 1.946 3.028 4.533 3.027 7.285-.002 5.677-4.643 10.296-10.346 10.296z"/>
    <path fill="#fff" fill-rule="evenodd" d="M9.477 7.129c-.23-.51-.473-.52-.692-.529-.18-.008-.384-.007-.59-.007-.204 0-.537.076-.819.383C7.094 7.282 6.3 8.022 6.3 9.528s1.102 2.962 1.255 3.166c.154.204 2.127 3.393 5.252 4.62 2.597 1.02 3.126.817 3.69.766.563-.051 1.819-.74 2.075-1.455.256-.715.256-1.328.18-1.456-.078-.127-.283-.204-.59-.357-.308-.153-1.82-.893-2.1-.995-.283-.102-.488-.153-.693.153-.205.306-.794.995-.973 1.2-.18.204-.359.23-.666.076-.308-.153-1.298-.476-2.473-1.519-.914-.81-1.53-1.813-1.71-2.12-.18-.305-.02-.471.135-.624.138-.137.307-.357.461-.536.153-.178.205-.306.307-.51.103-.204.052-.383-.025-.536-.077-.153-.675-1.667-.948-2.272z" clip-rule="evenodd"/>
    <path fill="#fff" d="M21.256 3.594C18.933 1.28 15.843.004 12.552.003 5.769.003.25 5.496.247 12.248c0 2.159.566 4.265 1.642 6.122L.144 24.716l6.523-1.703c1.797.976 3.82 1.49 5.88 1.49h.005c6.781 0 12.302-5.493 12.305-12.245 0-3.272-1.278-6.349-3.601-8.664zm-8.704 18.842h-.004c-1.836-.001-3.636-.492-5.206-1.42l-.373-.22-3.871 1.01 1.033-3.755-.243-.385c-1.024-1.621-1.564-3.494-1.564-5.417.003-5.612 4.59-10.178 10.232-10.178 2.732.001 5.3 1.062 7.23 2.985 1.931 1.924 2.994 4.481 2.993 7.201-.003 5.612-4.59 10.179-10.227 10.179z"/>
</svg>
